G04*
G04 #@! TF.GenerationSoftware,Altium Limited,Altium Designer,25.2.1 (25)*
G04*
G04 Layer_Color=8388736*
%FSLAX44Y44*%
%MOMM*%
G71*
G04*
G04 #@! TF.SameCoordinates,6A0C6451-6BFE-4A27-B80D-F8B4996A6162*
G04*
G04*
G04 #@! TF.FilePolarity,Negative*
G04*
G01*
G75*
%ADD44R,1.6032X1.5032*%
G04:AMPARAMS|DCode=45|XSize=0.4832mm|YSize=1.7632mm|CornerRadius=0.1716mm|HoleSize=0mm|Usage=FLASHONLY|Rotation=0.000|XOffset=0mm|YOffset=0mm|HoleType=Round|Shape=RoundedRectangle|*
%AMROUNDEDRECTD45*
21,1,0.4832,1.4200,0,0,0.0*
21,1,0.1400,1.7632,0,0,0.0*
1,1,0.3432,0.0700,-0.7100*
1,1,0.3432,-0.0700,-0.7100*
1,1,0.3432,-0.0700,0.7100*
1,1,0.3432,0.0700,0.7100*
%
%ADD45ROUNDEDRECTD45*%
G04:AMPARAMS|DCode=46|XSize=0.4832mm|YSize=1.7632mm|CornerRadius=0.1716mm|HoleSize=0mm|Usage=FLASHONLY|Rotation=90.000|XOffset=0mm|YOffset=0mm|HoleType=Round|Shape=RoundedRectangle|*
%AMROUNDEDRECTD46*
21,1,0.4832,1.4200,0,0,90.0*
21,1,0.1400,1.7632,0,0,90.0*
1,1,0.3432,0.7100,0.0700*
1,1,0.3432,0.7100,-0.0700*
1,1,0.3432,-0.7100,-0.0700*
1,1,0.3432,-0.7100,0.0700*
%
%ADD46ROUNDEDRECTD46*%
%ADD47R,1.5032X1.6032*%
%ADD48R,1.2232X1.2432*%
%ADD49R,1.3532X1.5532*%
%ADD50R,1.2432X1.2232*%
%ADD51R,0.8032X0.8032*%
%ADD52R,0.9032X1.1032*%
G04:AMPARAMS|DCode=53|XSize=1.5132mm|YSize=3.4432mm|CornerRadius=0.1999mm|HoleSize=0mm|Usage=FLASHONLY|Rotation=270.000|XOffset=0mm|YOffset=0mm|HoleType=Round|Shape=RoundedRectangle|*
%AMROUNDEDRECTD53*
21,1,1.5132,3.0435,0,0,270.0*
21,1,1.1135,3.4432,0,0,270.0*
1,1,0.3997,-1.5218,-0.5568*
1,1,0.3997,-1.5218,0.5568*
1,1,0.3997,1.5218,0.5568*
1,1,0.3997,1.5218,-0.5568*
%
%ADD53ROUNDEDRECTD53*%
G04:AMPARAMS|DCode=54|XSize=1.5132mm|YSize=1.1332mm|CornerRadius=0.1714mm|HoleSize=0mm|Usage=FLASHONLY|Rotation=270.000|XOffset=0mm|YOffset=0mm|HoleType=Round|Shape=RoundedRectangle|*
%AMROUNDEDRECTD54*
21,1,1.5132,0.7905,0,0,270.0*
21,1,1.1705,1.1332,0,0,270.0*
1,1,0.3427,-0.3953,-0.5853*
1,1,0.3427,-0.3953,0.5853*
1,1,0.3427,0.3953,0.5853*
1,1,0.3427,0.3953,-0.5853*
%
%ADD54ROUNDEDRECTD54*%
%ADD55R,1.1932X3.9932*%
%ADD56R,11.0432X8.0832*%
%ADD57R,1.0032X0.7032*%
%ADD58R,1.2532X1.5032*%
%ADD59R,2.5146X5.8166*%
%ADD60R,1.5532X1.3532*%
%ADD61R,1.2932X1.2832*%
%ADD62R,3.1032X5.6032*%
%ADD63R,2.2032X4.2032*%
%ADD64R,2.4832X2.3232*%
%ADD65R,1.5032X2.0032*%
G04:AMPARAMS|DCode=66|XSize=1.3032mm|YSize=1.1032mm|CornerRadius=0.3266mm|HoleSize=0mm|Usage=FLASHONLY|Rotation=270.000|XOffset=0mm|YOffset=0mm|HoleType=Round|Shape=RoundedRectangle|*
%AMROUNDEDRECTD66*
21,1,1.3032,0.4500,0,0,270.0*
21,1,0.6500,1.1032,0,0,270.0*
1,1,0.6532,-0.2250,-0.3250*
1,1,0.6532,-0.2250,0.3250*
1,1,0.6532,0.2250,0.3250*
1,1,0.6532,0.2250,-0.3250*
%
%ADD66ROUNDEDRECTD66*%
%ADD67R,1.1332X1.2132*%
%ADD68R,1.4032X1.4032*%
%ADD69R,1.4032X1.4032*%
%ADD70R,2.1844X0.7366*%
%ADD71C,1.7012*%
%ADD72R,1.7012X1.7012*%
G04:AMPARAMS|DCode=73|XSize=2.1532mm|YSize=2.1532mm|CornerRadius=0.5891mm|HoleSize=0mm|Usage=FLASHONLY|Rotation=0.000|XOffset=0mm|YOffset=0mm|HoleType=Round|Shape=RoundedRectangle|*
%AMROUNDEDRECTD73*
21,1,2.1532,0.9750,0,0,0.0*
21,1,0.9750,2.1532,0,0,0.0*
1,1,1.1782,0.4875,-0.4875*
1,1,1.1782,-0.4875,-0.4875*
1,1,1.1782,-0.4875,0.4875*
1,1,1.1782,0.4875,0.4875*
%
%ADD73ROUNDEDRECTD73*%
%ADD74C,2.1532*%
%ADD75C,3.2032*%
%ADD76R,1.3660X1.3660*%
%ADD77C,1.3660*%
G04:AMPARAMS|DCode=78|XSize=2.1532mm|YSize=2.1532mm|CornerRadius=0.5891mm|HoleSize=0mm|Usage=FLASHONLY|Rotation=270.000|XOffset=0mm|YOffset=0mm|HoleType=Round|Shape=RoundedRectangle|*
%AMROUNDEDRECTD78*
21,1,2.1532,0.9750,0,0,270.0*
21,1,0.9750,2.1532,0,0,270.0*
1,1,1.1782,-0.4875,-0.4875*
1,1,1.1782,-0.4875,0.4875*
1,1,1.1782,0.4875,0.4875*
1,1,1.1782,0.4875,-0.4875*
%
%ADD78ROUNDEDRECTD78*%
%ADD79C,2.1832*%
%ADD80C,2.1382*%
%ADD81R,2.1832X2.1832*%
%ADD82C,0.9032*%
%ADD83C,0.7032*%
%ADD84C,1.2032*%
%ADD85C,1.7032*%
D44*
X952000Y934000D02*
D03*
Y918000D02*
D03*
X828000Y858000D02*
D03*
Y874000D02*
D03*
X703000Y1071000D02*
D03*
Y1087000D02*
D03*
X1250000Y1172500D02*
D03*
Y1156500D02*
D03*
D45*
X862540Y929260D02*
D03*
X867540D02*
D03*
X872540D02*
D03*
X877540D02*
D03*
X882540D02*
D03*
X887540D02*
D03*
X892540D02*
D03*
X897540D02*
D03*
X902540D02*
D03*
X907540D02*
D03*
X912540D02*
D03*
X917540D02*
D03*
Y845660D02*
D03*
X912540D02*
D03*
X907540D02*
D03*
X902540D02*
D03*
X897540D02*
D03*
X892540D02*
D03*
X887540D02*
D03*
X882540D02*
D03*
X877540D02*
D03*
X872540D02*
D03*
X867540D02*
D03*
X862540D02*
D03*
D46*
X931840Y914960D02*
D03*
Y909960D02*
D03*
Y904960D02*
D03*
Y899960D02*
D03*
Y894960D02*
D03*
Y889960D02*
D03*
Y884960D02*
D03*
Y879960D02*
D03*
Y874960D02*
D03*
Y869960D02*
D03*
Y864960D02*
D03*
Y859960D02*
D03*
X848240D02*
D03*
Y864960D02*
D03*
Y869960D02*
D03*
Y874960D02*
D03*
Y879960D02*
D03*
Y884960D02*
D03*
Y889960D02*
D03*
Y894960D02*
D03*
Y899960D02*
D03*
Y904960D02*
D03*
Y909960D02*
D03*
Y914960D02*
D03*
D47*
X896000Y823000D02*
D03*
X912000D02*
D03*
X878000Y951000D02*
D03*
X862000D02*
D03*
X985000Y747000D02*
D03*
X1001000D02*
D03*
X1102500Y927500D02*
D03*
X1086500D02*
D03*
X787000Y950000D02*
D03*
X803000D02*
D03*
X784501Y880000D02*
D03*
X800500D02*
D03*
D48*
X1045000Y682500D02*
D03*
Y697200D02*
D03*
X980000D02*
D03*
Y682500D02*
D03*
X685000Y729850D02*
D03*
Y715150D02*
D03*
X685000Y927350D02*
D03*
Y912650D02*
D03*
D49*
X1452500Y1150000D02*
D03*
X1435000D02*
D03*
X1353750Y1150000D02*
D03*
X1336250D02*
D03*
X1402500Y1150000D02*
D03*
X1385000D02*
D03*
X913750Y967500D02*
D03*
X896250D02*
D03*
X771250Y672500D02*
D03*
X788750D02*
D03*
D50*
X945000Y685000D02*
D03*
X930300D02*
D03*
X899850Y687501D02*
D03*
X885150D02*
D03*
D51*
X1004000Y595000D02*
D03*
X1026000D02*
D03*
X1004000Y647500D02*
D03*
X1026000D02*
D03*
X1023501Y620000D02*
D03*
X1001500D02*
D03*
D52*
X1444000Y1099400D02*
D03*
X1431000D02*
D03*
X1437500Y1080400D02*
D03*
X1392500Y1080500D02*
D03*
X1386000Y1099500D02*
D03*
X1399000D02*
D03*
X1352500Y1080500D02*
D03*
X1346000Y1099500D02*
D03*
X1359000D02*
D03*
X1206500Y774500D02*
D03*
X1193500D02*
D03*
X1200000Y755500D02*
D03*
D53*
X1087500Y976550D02*
D03*
D54*
X1064600Y1043449D02*
D03*
X1087500D02*
D03*
X1110400D02*
D03*
D55*
X857000Y1075000D02*
D03*
X874000D02*
D03*
X891000D02*
D03*
X908000D02*
D03*
X925000D02*
D03*
D56*
X891000Y1182500D02*
D03*
D57*
X1399500Y1184500D02*
D03*
Y1193500D02*
D03*
X1383500D02*
D03*
Y1184500D02*
D03*
D58*
X804250Y902000D02*
D03*
X785750D02*
D03*
X804250Y928000D02*
D03*
X785750D02*
D03*
D59*
X684584Y1172500D02*
D03*
X610416D02*
D03*
D60*
X1392500Y1045000D02*
D03*
Y1027500D02*
D03*
X1435000Y965000D02*
D03*
Y982500D02*
D03*
Y1045000D02*
D03*
Y1027500D02*
D03*
X1355000Y1043750D02*
D03*
Y1026250D02*
D03*
X1392500Y965000D02*
D03*
Y982500D02*
D03*
X1352500Y963750D02*
D03*
Y981250D02*
D03*
X685000Y771250D02*
D03*
Y788750D02*
D03*
X1170000Y715000D02*
D03*
Y697500D02*
D03*
X1205000Y697500D02*
D03*
Y715000D02*
D03*
X1012500Y697500D02*
D03*
Y680000D02*
D03*
X687500Y968750D02*
D03*
Y986250D02*
D03*
D61*
X975000Y1218250D02*
D03*
Y1186750D02*
D03*
D62*
X1024000Y1157500D02*
D03*
X1121000D02*
D03*
D63*
X767500Y1102000D02*
D03*
Y1173000D02*
D03*
D64*
X618350Y1085000D02*
D03*
X661650D02*
D03*
D65*
X1211500Y1127500D02*
D03*
X1182500D02*
D03*
X1211500Y1165000D02*
D03*
X1182500D02*
D03*
X1211500Y1200000D02*
D03*
X1182500D02*
D03*
D66*
X647500Y780000D02*
D03*
X622100D02*
D03*
Y717000D02*
D03*
X647500D02*
D03*
X647700Y913500D02*
D03*
X622300D02*
D03*
Y976500D02*
D03*
X647700D02*
D03*
D67*
X1060000Y929590D02*
D03*
Y915410D02*
D03*
D68*
X1200000Y810700D02*
D03*
D69*
Y839300D02*
D03*
D70*
X939638Y764050D02*
D03*
Y751350D02*
D03*
Y738650D02*
D03*
Y725950D02*
D03*
X890362D02*
D03*
Y738650D02*
D03*
Y751350D02*
D03*
Y764050D02*
D03*
D71*
X725000Y645000D02*
D03*
X790000D02*
D03*
X725000Y600000D02*
D03*
D72*
X790000D02*
D03*
D73*
X892500Y620000D02*
D03*
D74*
X942500D02*
D03*
X537000Y1122000D02*
D03*
X1467500Y830000D02*
D03*
Y780000D02*
D03*
X532500Y727500D02*
D03*
X535000Y935001D02*
D03*
D75*
X1500000Y1237500D02*
D03*
X502500Y587500D02*
D03*
X1500000D02*
D03*
X502500Y1237500D02*
D03*
D76*
X835400Y810000D02*
D03*
D77*
X810000D02*
D03*
X784600D02*
D03*
X759200D02*
D03*
D78*
X537000Y1172000D02*
D03*
X1467500Y730000D02*
D03*
X532500Y777500D02*
D03*
X535000Y985001D02*
D03*
D79*
X1257500Y837000D02*
D03*
X1377500D02*
D03*
Y715000D02*
D03*
D80*
X1317500Y695000D02*
D03*
D81*
X1257500Y715000D02*
D03*
D82*
X1182000Y1111000D02*
D03*
X811000Y882000D02*
D03*
X902000Y797000D02*
D03*
X930000Y805000D02*
D03*
X902000Y945000D02*
D03*
X883000Y820000D02*
D03*
X747500Y855000D02*
D03*
X690000Y760000D02*
D03*
X913364Y944623D02*
D03*
X523000Y1134000D02*
D03*
X543000Y1136000D02*
D03*
X523000Y1124000D02*
D03*
Y1115000D02*
D03*
X524000Y1106000D02*
D03*
X535000Y1105000D02*
D03*
X546000Y1106000D02*
D03*
X680000Y760000D02*
D03*
X1105000Y1055000D02*
D03*
X1112500D02*
D03*
X1120000D02*
D03*
Y1047500D02*
D03*
Y1040000D02*
D03*
X1205000Y685000D02*
D03*
X925000Y1100000D02*
D03*
X1265000Y1172500D02*
D03*
X1412500Y972500D02*
D03*
X1375000Y963750D02*
D03*
X1450000Y982500D02*
D03*
X1392500Y995000D02*
D03*
X1115000Y927500D02*
D03*
X1050000Y930000D02*
D03*
X970000Y682500D02*
D03*
X992500Y647500D02*
D03*
X1026000Y582500D02*
D03*
X992500Y604980D02*
D03*
X1337500Y980000D02*
D03*
X852500Y812500D02*
D03*
X697500Y730000D02*
D03*
Y707500D02*
D03*
X980000Y807500D02*
D03*
X927036Y935000D02*
D03*
X777500Y842500D02*
D03*
X805000D02*
D03*
X815000Y830000D02*
D03*
X912500Y857500D02*
D03*
X862500Y880000D02*
D03*
X867500Y917500D02*
D03*
X737500Y855000D02*
D03*
Y927350D02*
D03*
X917500Y910000D02*
D03*
X787500Y965000D02*
D03*
X877500Y967500D02*
D03*
X1047500Y915000D02*
D03*
X692500Y957500D02*
D03*
X685000D02*
D03*
X622500Y902500D02*
D03*
X890000Y1044980D02*
D03*
X1040020Y914898D02*
D03*
X965000Y905000D02*
D03*
X1412500Y1047500D02*
D03*
X1375000Y1043750D02*
D03*
X1287500Y1012500D02*
D03*
X1312500Y1025000D02*
D03*
X1275000Y1002500D02*
D03*
X1125000Y725000D02*
D03*
X845000Y1212500D02*
D03*
X865000D02*
D03*
X887500D02*
D03*
X907500D02*
D03*
Y1190000D02*
D03*
X887500D02*
D03*
X865000D02*
D03*
X845000D02*
D03*
X930000Y1212500D02*
D03*
Y1190000D02*
D03*
X887500Y1165000D02*
D03*
X907500D02*
D03*
X930000D02*
D03*
X845000D02*
D03*
X865000D02*
D03*
X992500Y635000D02*
D03*
X622500Y707500D02*
D03*
X532500Y1135500D02*
D03*
X553000Y1134000D02*
D03*
Y1124000D02*
D03*
Y1114000D02*
D03*
D83*
X688000Y1071000D02*
D03*
X1001000Y731000D02*
D03*
X815000Y858000D02*
D03*
X822525Y885368D02*
D03*
X827500Y885000D02*
D03*
X937500Y827500D02*
D03*
X1370000Y1174000D02*
D03*
X1338500Y1099500D02*
D03*
X1378000Y1100000D02*
D03*
X1423400Y1099400D02*
D03*
X1186000Y775000D02*
D03*
X1370000Y1150000D02*
D03*
X1399500Y1177500D02*
D03*
X1360000Y1182000D02*
D03*
X947960Y899960D02*
D03*
X944590Y827910D02*
D03*
X931000Y823080D02*
D03*
X965000Y915000D02*
D03*
X953450Y725950D02*
D03*
X762500Y1197500D02*
D03*
X772500D02*
D03*
X782500D02*
D03*
X752500D02*
D03*
Y1190000D02*
D03*
Y1182500D02*
D03*
X782500D02*
D03*
Y1190000D02*
D03*
X772500D02*
D03*
X762500D02*
D03*
X845000Y952500D02*
D03*
X972500Y915000D02*
D03*
X840000Y947500D02*
D03*
D84*
X1115000Y976000D02*
D03*
D85*
X872500Y1020000D02*
D03*
X975000D02*
D03*
X1230000Y812500D02*
D03*
Y830000D02*
D03*
X1257500Y772500D02*
D03*
X890000Y1020000D02*
D03*
X960000D02*
D03*
M02*
