G04*
G04 #@! TF.GenerationSoftware,Altium Limited,Altium Designer,25.2.1 (25)*
G04*
G04 Layer_Color=2752767*
%FSLAX44Y44*%
%MOMM*%
G71*
G04*
G04 #@! TF.SameCoordinates,6A0C6451-6BFE-4A27-B80D-F8B4996A6162*
G04*
G04*
G04 #@! TF.FilePolarity,Positive*
G04*
G01*
G75*
%ADD12C,0.1270*%
%ADD109C,0.1693*%
D12*
X719920Y639920D02*
Y650080D01*
X730080D01*
Y639920D01*
X719920D01*
X721952Y641952D02*
Y648048D01*
X728048D01*
Y641952D01*
X721952D01*
X784920Y639920D02*
Y650080D01*
X795080D01*
Y639920D01*
X784920D01*
X786952Y641952D02*
Y648048D01*
X793048D01*
Y641952D01*
X786952D01*
X719920Y594920D02*
Y605080D01*
X730080D01*
Y594920D01*
X719920D01*
X721952Y596952D02*
Y603048D01*
X728048D01*
Y596952D01*
X721952D01*
X784920Y594920D02*
Y605080D01*
X795080D01*
Y594920D01*
X784920D01*
X786952Y596952D02*
Y603048D01*
X793048D01*
Y596952D01*
X786952D01*
X887420Y614920D02*
Y625080D01*
X897580D01*
Y614920D01*
X887420D01*
X937420D02*
Y625080D01*
X947580D01*
Y614920D01*
X937420D01*
X1494920Y1232420D02*
X1497460Y1237500D01*
X1494920Y1242580D01*
X1500000Y1240040D01*
X1505080Y1242580D01*
X1502540Y1237500D01*
X1505080Y1232420D01*
X1500000Y1234960D01*
X1494920Y1232420D01*
X830320Y810000D02*
X835400Y815080D01*
X840480Y810000D01*
X835400Y804920D01*
X830320Y810000D01*
X804920D02*
X810000Y815080D01*
X815080Y810000D01*
X810000Y804920D01*
X804920Y810000D01*
X779520D02*
X784600Y815080D01*
X789680Y810000D01*
X784600Y804920D01*
X779520Y810000D01*
X754120D02*
X759200Y815080D01*
X764280Y810000D01*
X759200Y804920D01*
X754120Y810000D01*
X531920Y1166920D02*
Y1177080D01*
X542080D01*
Y1166920D01*
X531920D01*
Y1116920D02*
Y1127080D01*
X542080D01*
Y1116920D01*
X531920D01*
X497420Y582420D02*
X499960Y587500D01*
X497420Y592580D01*
X502500Y590040D01*
X507580Y592580D01*
X505040Y587500D01*
X507580Y582420D01*
X502500Y584960D01*
X497420Y582420D01*
X1317500Y689920D02*
X1312420Y700080D01*
X1322580D01*
X1317500Y689920D01*
X1462420Y824920D02*
Y835080D01*
X1472580D01*
Y824920D01*
X1462420D01*
Y724920D02*
Y735080D01*
X1472580D01*
Y724920D01*
X1462420D01*
Y774920D02*
Y785080D01*
X1472580D01*
Y774920D01*
X1462420D01*
X527421Y722420D02*
Y732580D01*
X537580D01*
Y722420D01*
X527421D01*
Y772420D02*
Y782580D01*
X537580D01*
Y772420D01*
X527421D01*
X529921Y929921D02*
Y940081D01*
X540080D01*
Y929921D01*
X529921D01*
Y979921D02*
Y990080D01*
X540080D01*
Y979921D01*
X529921D01*
X1494920Y582420D02*
X1497460Y587500D01*
X1494920Y592580D01*
X1500000Y590040D01*
X1505080Y592580D01*
X1502540Y587500D01*
X1505080Y582420D01*
X1500000Y584960D01*
X1494920Y582420D01*
X497420Y1232420D02*
X499960Y1237500D01*
X497420Y1242580D01*
X502500Y1240040D01*
X507580Y1242580D01*
X505040Y1237500D01*
X507580Y1232420D01*
X502500Y1234960D01*
X497420Y1232420D01*
X1179460Y1108460D02*
Y1105920D01*
X1184540D01*
Y1108460D01*
X1187080D01*
Y1113540D01*
X1184540D01*
Y1116080D01*
X1179460D01*
Y1113540D01*
X1176920D01*
Y1108460D01*
X1179460D01*
X688000Y1065920D02*
X690540Y1068460D01*
X693080D01*
X690540Y1071000D01*
X693080Y1073540D01*
X690540D01*
X688000Y1076080D01*
X685460Y1073540D01*
X682920D01*
X685460Y1071000D01*
X682920Y1068460D01*
X685460D01*
X688000Y1065920D01*
X1001000Y725920D02*
X1003540Y728460D01*
X1006080D01*
X1003540Y731000D01*
X1006080Y733540D01*
X1003540D01*
X1001000Y736080D01*
X998460Y733540D01*
X995920D01*
X998460Y731000D01*
X995920Y728460D01*
X998460D01*
X1001000Y725920D01*
X815000Y852920D02*
X817540Y855460D01*
X820080D01*
X817540Y858000D01*
X820080Y860540D01*
X817540D01*
X815000Y863080D01*
X812460Y860540D01*
X809920D01*
X812460Y858000D01*
X809920Y855460D01*
X812460D01*
X815000Y852920D01*
X808460Y879460D02*
Y876920D01*
X813540D01*
Y879460D01*
X816080D01*
Y884540D01*
X813540D01*
Y887080D01*
X808460D01*
Y884540D01*
X805920D01*
Y879460D01*
X808460D01*
X822525Y880288D02*
X825065Y882828D01*
X827605D01*
X825065Y885368D01*
X827605Y887908D01*
X825065D01*
X822525Y890448D01*
X819985Y887908D01*
X817445D01*
X819985Y885368D01*
X817445Y882828D01*
X819985D01*
X822525Y880288D01*
X899460Y794460D02*
Y791920D01*
X904540D01*
Y794460D01*
X907080D01*
Y799540D01*
X904540D01*
Y802080D01*
X899460D01*
Y799540D01*
X896920D01*
Y794460D01*
X899460D01*
X927460Y802460D02*
Y799920D01*
X932540D01*
Y802460D01*
X935080D01*
Y807540D01*
X932540D01*
Y810080D01*
X927460D01*
Y807540D01*
X924920D01*
Y802460D01*
X927460D01*
X899460Y942460D02*
Y939920D01*
X904540D01*
Y942460D01*
X907080D01*
Y947540D01*
X904540D01*
Y950080D01*
X899460D01*
Y947540D01*
X896920D01*
Y942460D01*
X899460D01*
X880460Y817460D02*
Y814920D01*
X885540D01*
Y817460D01*
X888080D01*
Y822540D01*
X885540D01*
Y825080D01*
X880460D01*
Y822540D01*
X877920D01*
Y817460D01*
X880460D01*
X1109920Y970920D02*
X1112460D01*
X1115000Y973460D01*
X1117540Y970920D01*
X1120080D01*
Y973460D01*
X1117540Y976000D01*
X1120080Y978540D01*
Y981080D01*
X1117540D01*
X1115000Y978540D01*
X1112460Y981080D01*
X1109920D01*
Y978540D01*
X1112460Y976000D01*
X1109920Y973460D01*
Y970920D01*
X827500Y879920D02*
X830040Y882460D01*
X832580D01*
X830040Y885000D01*
X832580Y887540D01*
X830040D01*
X827500Y890080D01*
X824960Y887540D01*
X822420D01*
X824960Y885000D01*
X822420Y882460D01*
X824960D01*
X827500Y879920D01*
X937500Y822420D02*
X940040Y824960D01*
X942580D01*
X940040Y827500D01*
X942580Y830040D01*
X940040D01*
X937500Y832580D01*
X934960Y830040D01*
X932420D01*
X934960Y827500D01*
X932420Y824960D01*
X934960D01*
X937500Y822420D01*
X872500Y1014920D02*
X867420Y1025080D01*
X877580D01*
X872500Y1014920D01*
Y1016952D02*
X869452Y1023048D01*
X875548D01*
X872500Y1016952D01*
X975000Y1014920D02*
X969920Y1025080D01*
X980080D01*
X975000Y1014920D01*
Y1016952D02*
X971952Y1023048D01*
X978048D01*
X975000Y1016952D01*
X744960Y852460D02*
Y849920D01*
X750040D01*
Y852460D01*
X752580D01*
Y857540D01*
X750040D01*
Y860080D01*
X744960D01*
Y857540D01*
X742420D01*
Y852460D01*
X744960D01*
X687460Y757460D02*
Y754920D01*
X692540D01*
Y757460D01*
X695080D01*
Y762540D01*
X692540D01*
Y765080D01*
X687460D01*
Y762540D01*
X684920D01*
Y757460D01*
X687460D01*
X1230000Y807420D02*
X1224920Y817580D01*
X1235080D01*
X1230000Y807420D01*
Y809452D02*
X1226952Y815548D01*
X1233048D01*
X1230000Y809452D01*
Y824920D02*
X1224920Y835080D01*
X1235080D01*
X1230000Y824920D01*
Y826952D02*
X1226952Y833048D01*
X1233048D01*
X1230000Y826952D01*
X910824Y942083D02*
Y939543D01*
X915904D01*
Y942083D01*
X918444D01*
Y947163D01*
X915904D01*
Y949703D01*
X910824D01*
Y947163D01*
X908284D01*
Y942083D01*
X910824D01*
X1257500Y767420D02*
X1252420Y777580D01*
X1262580D01*
X1257500Y767420D01*
Y769452D02*
X1254452Y775548D01*
X1260548D01*
X1257500Y769452D01*
X1370000Y1168920D02*
X1372540Y1171460D01*
X1375080D01*
X1372540Y1174000D01*
X1375080Y1176540D01*
X1372540D01*
X1370000Y1179080D01*
X1367460Y1176540D01*
X1364920D01*
X1367460Y1174000D01*
X1364920Y1171460D01*
X1367460D01*
X1370000Y1168920D01*
X1338500Y1094420D02*
X1341040Y1096960D01*
X1343580D01*
X1341040Y1099500D01*
X1343580Y1102040D01*
X1341040D01*
X1338500Y1104580D01*
X1335960Y1102040D01*
X1333420D01*
X1335960Y1099500D01*
X1333420Y1096960D01*
X1335960D01*
X1338500Y1094420D01*
X1378000Y1094920D02*
X1380540Y1097460D01*
X1383080D01*
X1380540Y1100000D01*
X1383080Y1102540D01*
X1380540D01*
X1378000Y1105080D01*
X1375460Y1102540D01*
X1372920D01*
X1375460Y1100000D01*
X1372920Y1097460D01*
X1375460D01*
X1378000Y1094920D01*
X1423400Y1094320D02*
X1425940Y1096860D01*
X1428480D01*
X1425940Y1099400D01*
X1428480Y1101940D01*
X1425940D01*
X1423400Y1104480D01*
X1420860Y1101940D01*
X1418320D01*
X1420860Y1099400D01*
X1418320Y1096860D01*
X1420860D01*
X1423400Y1094320D01*
X1186000Y769920D02*
X1188540Y772460D01*
X1191080D01*
X1188540Y775000D01*
X1191080Y777540D01*
X1188540D01*
X1186000Y780080D01*
X1183460Y777540D01*
X1180920D01*
X1183460Y775000D01*
X1180920Y772460D01*
X1183460D01*
X1186000Y769920D01*
X1370000Y1144920D02*
X1372540Y1147460D01*
X1375080D01*
X1372540Y1150000D01*
X1375080Y1152540D01*
X1372540D01*
X1370000Y1155080D01*
X1367460Y1152540D01*
X1364920D01*
X1367460Y1150000D01*
X1364920Y1147460D01*
X1367460D01*
X1370000Y1144920D01*
X1399500Y1172420D02*
X1402040Y1174960D01*
X1404580D01*
X1402040Y1177500D01*
X1404580Y1180040D01*
X1402040D01*
X1399500Y1182580D01*
X1396960Y1180040D01*
X1394420D01*
X1396960Y1177500D01*
X1394420Y1174960D01*
X1396960D01*
X1399500Y1172420D01*
X1360000Y1176920D02*
X1362540Y1179460D01*
X1365080D01*
X1362540Y1182000D01*
X1365080Y1184540D01*
X1362540D01*
X1360000Y1187080D01*
X1357460Y1184540D01*
X1354920D01*
X1357460Y1182000D01*
X1354920Y1179460D01*
X1357460D01*
X1360000Y1176920D01*
X947960Y894880D02*
X950500Y897420D01*
X953040D01*
X950500Y899960D01*
X953040Y902500D01*
X950500D01*
X947960Y905040D01*
X945420Y902500D01*
X942880D01*
X945420Y899960D01*
X942880Y897420D01*
X945420D01*
X947960Y894880D01*
X944590Y822830D02*
X947130Y825370D01*
X949670D01*
X947130Y827910D01*
X949670Y830450D01*
X947130D01*
X944590Y832990D01*
X942050Y830450D01*
X939510D01*
X942050Y827910D01*
X939510Y825370D01*
X942050D01*
X944590Y822830D01*
X931000Y818000D02*
X933540Y820540D01*
X936080D01*
X933540Y823080D01*
X936080Y825620D01*
X933540D01*
X931000Y828160D01*
X928460Y825620D01*
X925920D01*
X928460Y823080D01*
X925920Y820540D01*
X928460D01*
X931000Y818000D01*
X523000Y1128920D02*
X525540Y1131460D01*
X528080D01*
X525540Y1134000D01*
X528080Y1136540D01*
X525540D01*
X523000Y1139080D01*
X520460Y1136540D01*
X517920D01*
X520460Y1134000D01*
X517920Y1131460D01*
X520460D01*
X523000Y1128920D01*
X543000Y1130920D02*
X545540Y1133460D01*
X548080D01*
X545540Y1136000D01*
X548080Y1138540D01*
X545540D01*
X543000Y1141080D01*
X540460Y1138540D01*
X537920D01*
X540460Y1136000D01*
X537920Y1133460D01*
X540460D01*
X543000Y1130920D01*
X523000Y1118920D02*
X525540Y1121460D01*
X528080D01*
X525540Y1124000D01*
X528080Y1126540D01*
X525540D01*
X523000Y1129080D01*
X520460Y1126540D01*
X517920D01*
X520460Y1124000D01*
X517920Y1121460D01*
X520460D01*
X523000Y1118920D01*
Y1109920D02*
X525540Y1112460D01*
X528080D01*
X525540Y1115000D01*
X528080Y1117540D01*
X525540D01*
X523000Y1120080D01*
X520460Y1117540D01*
X517920D01*
X520460Y1115000D01*
X517920Y1112460D01*
X520460D01*
X523000Y1109920D01*
X524000Y1100920D02*
X526540Y1103460D01*
X529080D01*
X526540Y1106000D01*
X529080Y1108540D01*
X526540D01*
X524000Y1111080D01*
X521460Y1108540D01*
X518920D01*
X521460Y1106000D01*
X518920Y1103460D01*
X521460D01*
X524000Y1100920D01*
X535000Y1099920D02*
X537540Y1102460D01*
X540080D01*
X537540Y1105000D01*
X540080Y1107540D01*
X537540D01*
X535000Y1110080D01*
X532460Y1107540D01*
X529920D01*
X532460Y1105000D01*
X529920Y1102460D01*
X532460D01*
X535000Y1099920D01*
X546000Y1100920D02*
X548540Y1103460D01*
X551080D01*
X548540Y1106000D01*
X551080Y1108540D01*
X548540D01*
X546000Y1111080D01*
X543460Y1108540D01*
X540920D01*
X543460Y1106000D01*
X540920Y1103460D01*
X543460D01*
X546000Y1100920D01*
X677460Y757460D02*
Y754920D01*
X682540D01*
Y757460D01*
X685080D01*
Y762540D01*
X682540D01*
Y765080D01*
X677460D01*
Y762540D01*
X674920D01*
Y757460D01*
X677460D01*
X1102460Y1052460D02*
Y1049920D01*
X1107540D01*
Y1052460D01*
X1110080D01*
Y1057540D01*
X1107540D01*
Y1060080D01*
X1102460D01*
Y1057540D01*
X1099920D01*
Y1052460D01*
X1102460D01*
X1109960D02*
Y1049920D01*
X1115040D01*
Y1052460D01*
X1117580D01*
Y1057540D01*
X1115040D01*
Y1060080D01*
X1109960D01*
Y1057540D01*
X1107420D01*
Y1052460D01*
X1109960D01*
X1117460D02*
Y1049920D01*
X1122540D01*
Y1052460D01*
X1125080D01*
Y1057540D01*
X1122540D01*
Y1060080D01*
X1117460D01*
Y1057540D01*
X1114920D01*
Y1052460D01*
X1117460D01*
Y1044960D02*
Y1042420D01*
X1122540D01*
Y1044960D01*
X1125080D01*
Y1050040D01*
X1122540D01*
Y1052580D01*
X1117460D01*
Y1050040D01*
X1114920D01*
Y1044960D01*
X1117460D01*
Y1037460D02*
Y1034920D01*
X1122540D01*
Y1037460D01*
X1125080D01*
Y1042540D01*
X1122540D01*
Y1045080D01*
X1117460D01*
Y1042540D01*
X1114920D01*
Y1037460D01*
X1117460D01*
X1205000Y679920D02*
X1207540Y682460D01*
X1210080D01*
X1207540Y685000D01*
X1210080Y687540D01*
X1207540D01*
X1205000Y690080D01*
X1202460Y687540D01*
X1199920D01*
X1202460Y685000D01*
X1199920Y682460D01*
X1202460D01*
X1205000Y679920D01*
X922460Y1097460D02*
Y1094920D01*
X927540D01*
Y1097460D01*
X930080D01*
Y1102540D01*
X927540D01*
Y1105080D01*
X922460D01*
Y1102540D01*
X919920D01*
Y1097460D01*
X922460D01*
X1262460Y1169960D02*
Y1167420D01*
X1267540D01*
Y1169960D01*
X1270080D01*
Y1175040D01*
X1267540D01*
Y1177580D01*
X1262460D01*
Y1175040D01*
X1259920D01*
Y1169960D01*
X1262460D01*
X1409960Y969960D02*
Y967420D01*
X1415040D01*
Y969960D01*
X1417580D01*
Y975040D01*
X1415040D01*
Y977580D01*
X1409960D01*
Y975040D01*
X1407420D01*
Y969960D01*
X1409960D01*
X1372460Y961210D02*
Y958670D01*
X1377540D01*
Y961210D01*
X1380080D01*
Y966290D01*
X1377540D01*
Y968830D01*
X1372460D01*
Y966290D01*
X1369920D01*
Y961210D01*
X1372460D01*
X1447460Y979960D02*
Y977420D01*
X1452540D01*
Y979960D01*
X1455080D01*
Y985040D01*
X1452540D01*
Y987580D01*
X1447460D01*
Y985040D01*
X1444920D01*
Y979960D01*
X1447460D01*
X1389960Y992460D02*
Y989920D01*
X1395040D01*
Y992460D01*
X1397580D01*
Y997540D01*
X1395040D01*
Y1000080D01*
X1389960D01*
Y997540D01*
X1387420D01*
Y992460D01*
X1389960D01*
X1112460Y924960D02*
Y922420D01*
X1117540D01*
Y924960D01*
X1120080D01*
Y930040D01*
X1117540D01*
Y932580D01*
X1112460D01*
Y930040D01*
X1109920D01*
Y924960D01*
X1112460D01*
X1047460Y927460D02*
Y924920D01*
X1052540D01*
Y927460D01*
X1055080D01*
Y932540D01*
X1052540D01*
Y935080D01*
X1047460D01*
Y932540D01*
X1044920D01*
Y927460D01*
X1047460D01*
X967460Y679960D02*
Y677420D01*
X972540D01*
Y679960D01*
X975080D01*
Y685040D01*
X972540D01*
Y687580D01*
X967460D01*
Y685040D01*
X964920D01*
Y679960D01*
X967460D01*
X989960Y644960D02*
Y642420D01*
X995040D01*
Y644960D01*
X997580D01*
Y650040D01*
X995040D01*
Y652580D01*
X989960D01*
Y650040D01*
X987420D01*
Y644960D01*
X989960D01*
X1023460Y579960D02*
Y577420D01*
X1028540D01*
Y579960D01*
X1031080D01*
Y585040D01*
X1028540D01*
Y587580D01*
X1023460D01*
Y585040D01*
X1020920D01*
Y579960D01*
X1023460D01*
X989960Y602440D02*
Y599900D01*
X995040D01*
Y602440D01*
X997580D01*
Y607520D01*
X995040D01*
Y610060D01*
X989960D01*
Y607520D01*
X987420D01*
Y602440D01*
X989960D01*
X1334960Y977460D02*
Y974920D01*
X1340040D01*
Y977460D01*
X1342580D01*
Y982540D01*
X1340040D01*
Y985080D01*
X1334960D01*
Y982540D01*
X1332420D01*
Y977460D01*
X1334960D01*
X849960Y809960D02*
Y807420D01*
X855040D01*
Y809960D01*
X857580D01*
Y815040D01*
X855040D01*
Y817580D01*
X849960D01*
Y815040D01*
X847420D01*
Y809960D01*
X849960D01*
X694960Y727460D02*
Y724920D01*
X700040D01*
Y727460D01*
X702580D01*
Y732540D01*
X700040D01*
Y735080D01*
X694960D01*
Y732540D01*
X692420D01*
Y727460D01*
X694960D01*
Y704960D02*
Y702420D01*
X700040D01*
Y704960D01*
X702580D01*
Y710040D01*
X700040D01*
Y712580D01*
X694960D01*
Y710040D01*
X692420D01*
Y704960D01*
X694960D01*
X977460Y804960D02*
Y802420D01*
X982540D01*
Y804960D01*
X985080D01*
Y810040D01*
X982540D01*
Y812580D01*
X977460D01*
Y810040D01*
X974920D01*
Y804960D01*
X977460D01*
X924496Y932460D02*
Y929920D01*
X929576D01*
Y932460D01*
X932116D01*
Y937540D01*
X929576D01*
Y940080D01*
X924496D01*
Y937540D01*
X921956D01*
Y932460D01*
X924496D01*
X774960Y839960D02*
Y837420D01*
X780040D01*
Y839960D01*
X782580D01*
Y845040D01*
X780040D01*
Y847580D01*
X774960D01*
Y845040D01*
X772420D01*
Y839960D01*
X774960D01*
X802460D02*
Y837420D01*
X807540D01*
Y839960D01*
X810080D01*
Y845040D01*
X807540D01*
Y847580D01*
X802460D01*
Y845040D01*
X799920D01*
Y839960D01*
X802460D01*
X812460Y827460D02*
Y824920D01*
X817540D01*
Y827460D01*
X820080D01*
Y832540D01*
X817540D01*
Y835080D01*
X812460D01*
Y832540D01*
X809920D01*
Y827460D01*
X812460D01*
X909960Y854960D02*
Y852420D01*
X915040D01*
Y854960D01*
X917580D01*
Y860040D01*
X915040D01*
Y862580D01*
X909960D01*
Y860040D01*
X907420D01*
Y854960D01*
X909960D01*
X965000Y909920D02*
X967540Y912460D01*
X970080D01*
X967540Y915000D01*
X970080Y917540D01*
X967540D01*
X965000Y920080D01*
X962460Y917540D01*
X959920D01*
X962460Y915000D01*
X959920Y912460D01*
X962460D01*
X965000Y909920D01*
X859960Y877460D02*
Y874920D01*
X865040D01*
Y877460D01*
X867580D01*
Y882540D01*
X865040D01*
Y885080D01*
X859960D01*
Y882540D01*
X857420D01*
Y877460D01*
X859960D01*
X864960Y914960D02*
Y912420D01*
X870040D01*
Y914960D01*
X872580D01*
Y920040D01*
X870040D01*
Y922580D01*
X864960D01*
Y920040D01*
X862420D01*
Y914960D01*
X864960D01*
X734960Y852460D02*
Y849920D01*
X740040D01*
Y852460D01*
X742580D01*
Y857540D01*
X740040D01*
Y860080D01*
X734960D01*
Y857540D01*
X732420D01*
Y852460D01*
X734960D01*
Y924810D02*
Y922270D01*
X740040D01*
Y924810D01*
X742580D01*
Y929890D01*
X740040D01*
Y932430D01*
X734960D01*
Y929890D01*
X732420D01*
Y924810D01*
X734960D01*
X953450Y720870D02*
X955990Y723410D01*
X958530D01*
X955990Y725950D01*
X958530Y728490D01*
X955990D01*
X953450Y731030D01*
X950910Y728490D01*
X948370D01*
X950910Y725950D01*
X948370Y723410D01*
X950910D01*
X953450Y720870D01*
X914960Y907460D02*
Y904920D01*
X920040D01*
Y907460D01*
X922580D01*
Y912540D01*
X920040D01*
Y915080D01*
X914960D01*
Y912540D01*
X912420D01*
Y907460D01*
X914960D01*
X784960Y962460D02*
Y959920D01*
X790040D01*
Y962460D01*
X792580D01*
Y967540D01*
X790040D01*
Y970080D01*
X784960D01*
Y967540D01*
X782420D01*
Y962460D01*
X784960D01*
X762500Y1192420D02*
X765040Y1194960D01*
X767580D01*
X765040Y1197500D01*
X767580Y1200040D01*
X765040D01*
X762500Y1202580D01*
X759960Y1200040D01*
X757420D01*
X759960Y1197500D01*
X757420Y1194960D01*
X759960D01*
X762500Y1192420D01*
X772500D02*
X775040Y1194960D01*
X777580D01*
X775040Y1197500D01*
X777580Y1200040D01*
X775040D01*
X772500Y1202580D01*
X769960Y1200040D01*
X767420D01*
X769960Y1197500D01*
X767420Y1194960D01*
X769960D01*
X772500Y1192420D01*
X782500D02*
X785040Y1194960D01*
X787580D01*
X785040Y1197500D01*
X787580Y1200040D01*
X785040D01*
X782500Y1202580D01*
X779960Y1200040D01*
X777420D01*
X779960Y1197500D01*
X777420Y1194960D01*
X779960D01*
X782500Y1192420D01*
X752500D02*
X755040Y1194960D01*
X757580D01*
X755040Y1197500D01*
X757580Y1200040D01*
X755040D01*
X752500Y1202580D01*
X749960Y1200040D01*
X747420D01*
X749960Y1197500D01*
X747420Y1194960D01*
X749960D01*
X752500Y1192420D01*
Y1184920D02*
X755040Y1187460D01*
X757580D01*
X755040Y1190000D01*
X757580Y1192540D01*
X755040D01*
X752500Y1195080D01*
X749960Y1192540D01*
X747420D01*
X749960Y1190000D01*
X747420Y1187460D01*
X749960D01*
X752500Y1184920D01*
Y1177420D02*
X755040Y1179960D01*
X757580D01*
X755040Y1182500D01*
X757580Y1185040D01*
X755040D01*
X752500Y1187580D01*
X749960Y1185040D01*
X747420D01*
X749960Y1182500D01*
X747420Y1179960D01*
X749960D01*
X752500Y1177420D01*
X782500D02*
X785040Y1179960D01*
X787580D01*
X785040Y1182500D01*
X787580Y1185040D01*
X785040D01*
X782500Y1187580D01*
X779960Y1185040D01*
X777420D01*
X779960Y1182500D01*
X777420Y1179960D01*
X779960D01*
X782500Y1177420D01*
Y1184920D02*
X785040Y1187460D01*
X787580D01*
X785040Y1190000D01*
X787580Y1192540D01*
X785040D01*
X782500Y1195080D01*
X779960Y1192540D01*
X777420D01*
X779960Y1190000D01*
X777420Y1187460D01*
X779960D01*
X782500Y1184920D01*
X772500D02*
X775040Y1187460D01*
X777580D01*
X775040Y1190000D01*
X777580Y1192540D01*
X775040D01*
X772500Y1195080D01*
X769960Y1192540D01*
X767420D01*
X769960Y1190000D01*
X767420Y1187460D01*
X769960D01*
X772500Y1184920D01*
X762500D02*
X765040Y1187460D01*
X767580D01*
X765040Y1190000D01*
X767580Y1192540D01*
X765040D01*
X762500Y1195080D01*
X759960Y1192540D01*
X757420D01*
X759960Y1190000D01*
X757420Y1187460D01*
X759960D01*
X762500Y1184920D01*
X874960Y964960D02*
Y962420D01*
X880040D01*
Y964960D01*
X882580D01*
Y970040D01*
X880040D01*
Y972580D01*
X874960D01*
Y970040D01*
X872420D01*
Y964960D01*
X874960D01*
X845000Y947420D02*
X847540Y949960D01*
X850080D01*
X847540Y952500D01*
X850080Y955040D01*
X847540D01*
X845000Y957580D01*
X842460Y955040D01*
X839920D01*
X842460Y952500D01*
X839920Y949960D01*
X842460D01*
X845000Y947420D01*
X1044960Y912460D02*
Y909920D01*
X1050040D01*
Y912460D01*
X1052580D01*
Y917540D01*
X1050040D01*
Y920080D01*
X1044960D01*
Y917540D01*
X1042420D01*
Y912460D01*
X1044960D01*
X689960Y954960D02*
Y952420D01*
X695040D01*
Y954960D01*
X697580D01*
Y960040D01*
X695040D01*
Y962580D01*
X689960D01*
Y960040D01*
X687420D01*
Y954960D01*
X689960D01*
X682460D02*
Y952420D01*
X687540D01*
Y954960D01*
X690080D01*
Y960040D01*
X687540D01*
Y962580D01*
X682460D01*
Y960040D01*
X679920D01*
Y954960D01*
X682460D01*
X619960Y899960D02*
Y897420D01*
X625040D01*
Y899960D01*
X627580D01*
Y905040D01*
X625040D01*
Y907580D01*
X619960D01*
Y905040D01*
X617420D01*
Y899960D01*
X619960D01*
X887460Y1042440D02*
Y1039900D01*
X892540D01*
Y1042440D01*
X895080D01*
Y1047520D01*
X892540D01*
Y1050060D01*
X887460D01*
Y1047520D01*
X884920D01*
Y1042440D01*
X887460D01*
X890000Y1014920D02*
X884920Y1025080D01*
X895080D01*
X890000Y1014920D01*
Y1016952D02*
X886952Y1023048D01*
X893048D01*
X890000Y1016952D01*
X1037480Y912357D02*
Y909818D01*
X1042560D01*
Y912357D01*
X1045100D01*
Y917438D01*
X1042560D01*
Y919977D01*
X1037480D01*
Y917438D01*
X1034940D01*
Y912357D01*
X1037480D01*
X960000Y1014920D02*
X954920Y1025080D01*
X965080D01*
X960000Y1014920D01*
Y1016952D02*
X956952Y1023048D01*
X963048D01*
X960000Y1016952D01*
X962460Y902460D02*
Y899920D01*
X967540D01*
Y902460D01*
X970080D01*
Y907540D01*
X967540D01*
Y910080D01*
X962460D01*
Y907540D01*
X959920D01*
Y902460D01*
X962460D01*
X972500Y909920D02*
X975040Y912460D01*
X977580D01*
X975040Y915000D01*
X977580Y917540D01*
X975040D01*
X972500Y920080D01*
X969960Y917540D01*
X967420D01*
X969960Y915000D01*
X967420Y912460D01*
X969960D01*
X972500Y909920D01*
X840000Y942420D02*
X842540Y944960D01*
X845080D01*
X842540Y947500D01*
X845080Y950040D01*
X842540D01*
X840000Y952580D01*
X837460Y950040D01*
X834920D01*
X837460Y947500D01*
X834920Y944960D01*
X837460D01*
X840000Y942420D01*
X1409960Y1044960D02*
Y1042420D01*
X1415040D01*
Y1044960D01*
X1417580D01*
Y1050040D01*
X1415040D01*
Y1052580D01*
X1409960D01*
Y1050040D01*
X1407420D01*
Y1044960D01*
X1409960D01*
X1372460Y1041210D02*
Y1038670D01*
X1377540D01*
Y1041210D01*
X1380080D01*
Y1046290D01*
X1377540D01*
Y1048830D01*
X1372460D01*
Y1046290D01*
X1369920D01*
Y1041210D01*
X1372460D01*
X1284960Y1009960D02*
Y1007420D01*
X1290040D01*
Y1009960D01*
X1292580D01*
Y1015040D01*
X1290040D01*
Y1017580D01*
X1284960D01*
Y1015040D01*
X1282420D01*
Y1009960D01*
X1284960D01*
X1309960Y1022460D02*
Y1019920D01*
X1315040D01*
Y1022460D01*
X1317580D01*
Y1027540D01*
X1315040D01*
Y1030080D01*
X1309960D01*
Y1027540D01*
X1307420D01*
Y1022460D01*
X1309960D01*
X1272460Y999960D02*
Y997420D01*
X1277540D01*
Y999960D01*
X1280080D01*
Y1005040D01*
X1277540D01*
Y1007580D01*
X1272460D01*
Y1005040D01*
X1269920D01*
Y999960D01*
X1272460D01*
X1125000Y719920D02*
X1127540Y722460D01*
X1130080D01*
X1127540Y725000D01*
X1130080Y727540D01*
X1127540D01*
X1125000Y730080D01*
X1122460Y727540D01*
X1119920D01*
X1122460Y725000D01*
X1119920Y722460D01*
X1122460D01*
X1125000Y719920D01*
X842460Y1209960D02*
Y1207420D01*
X847540D01*
Y1209960D01*
X850080D01*
Y1215040D01*
X847540D01*
Y1217580D01*
X842460D01*
Y1215040D01*
X839920D01*
Y1209960D01*
X842460D01*
X862460D02*
Y1207420D01*
X867540D01*
Y1209960D01*
X870080D01*
Y1215040D01*
X867540D01*
Y1217580D01*
X862460D01*
Y1215040D01*
X859920D01*
Y1209960D01*
X862460D01*
X884960D02*
Y1207420D01*
X890040D01*
Y1209960D01*
X892580D01*
Y1215040D01*
X890040D01*
Y1217580D01*
X884960D01*
Y1215040D01*
X882420D01*
Y1209960D01*
X884960D01*
X904960D02*
Y1207420D01*
X910040D01*
Y1209960D01*
X912580D01*
Y1215040D01*
X910040D01*
Y1217580D01*
X904960D01*
Y1215040D01*
X902420D01*
Y1209960D01*
X904960D01*
Y1187460D02*
Y1184920D01*
X910040D01*
Y1187460D01*
X912580D01*
Y1192540D01*
X910040D01*
Y1195080D01*
X904960D01*
Y1192540D01*
X902420D01*
Y1187460D01*
X904960D01*
X884960D02*
Y1184920D01*
X890040D01*
Y1187460D01*
X892580D01*
Y1192540D01*
X890040D01*
Y1195080D01*
X884960D01*
Y1192540D01*
X882420D01*
Y1187460D01*
X884960D01*
X862460D02*
Y1184920D01*
X867540D01*
Y1187460D01*
X870080D01*
Y1192540D01*
X867540D01*
Y1195080D01*
X862460D01*
Y1192540D01*
X859920D01*
Y1187460D01*
X862460D01*
X842460D02*
Y1184920D01*
X847540D01*
Y1187460D01*
X850080D01*
Y1192540D01*
X847540D01*
Y1195080D01*
X842460D01*
Y1192540D01*
X839920D01*
Y1187460D01*
X842460D01*
X927460Y1209960D02*
Y1207420D01*
X932540D01*
Y1209960D01*
X935080D01*
Y1215040D01*
X932540D01*
Y1217580D01*
X927460D01*
Y1215040D01*
X924920D01*
Y1209960D01*
X927460D01*
Y1187460D02*
Y1184920D01*
X932540D01*
Y1187460D01*
X935080D01*
Y1192540D01*
X932540D01*
Y1195080D01*
X927460D01*
Y1192540D01*
X924920D01*
Y1187460D01*
X927460D01*
X884960Y1162460D02*
Y1159920D01*
X890040D01*
Y1162460D01*
X892580D01*
Y1167540D01*
X890040D01*
Y1170080D01*
X884960D01*
Y1167540D01*
X882420D01*
Y1162460D01*
X884960D01*
X904960D02*
Y1159920D01*
X910040D01*
Y1162460D01*
X912580D01*
Y1167540D01*
X910040D01*
Y1170080D01*
X904960D01*
Y1167540D01*
X902420D01*
Y1162460D01*
X904960D01*
X927460D02*
Y1159920D01*
X932540D01*
Y1162460D01*
X935080D01*
Y1167540D01*
X932540D01*
Y1170080D01*
X927460D01*
Y1167540D01*
X924920D01*
Y1162460D01*
X927460D01*
X842460D02*
Y1159920D01*
X847540D01*
Y1162460D01*
X850080D01*
Y1167540D01*
X847540D01*
Y1170080D01*
X842460D01*
Y1167540D01*
X839920D01*
Y1162460D01*
X842460D01*
X862460D02*
Y1159920D01*
X867540D01*
Y1162460D01*
X870080D01*
Y1167540D01*
X867540D01*
Y1170080D01*
X862460D01*
Y1167540D01*
X859920D01*
Y1162460D01*
X862460D01*
X989960Y632460D02*
Y629920D01*
X995040D01*
Y632460D01*
X997580D01*
Y637540D01*
X995040D01*
Y640080D01*
X989960D01*
Y637540D01*
X987420D01*
Y632460D01*
X989960D01*
X619960Y704960D02*
Y702420D01*
X625040D01*
Y704960D01*
X627580D01*
Y710040D01*
X625040D01*
Y712580D01*
X619960D01*
Y710040D01*
X617420D01*
Y704960D01*
X619960D01*
X532500Y1130420D02*
X535040Y1132960D01*
X537580D01*
X535040Y1135500D01*
X537580Y1138040D01*
X535040D01*
X532500Y1140580D01*
X529960Y1138040D01*
X527420D01*
X529960Y1135500D01*
X527420Y1132960D01*
X529960D01*
X532500Y1130420D01*
X553000Y1128920D02*
X555540Y1131460D01*
X558080D01*
X555540Y1134000D01*
X558080Y1136540D01*
X555540D01*
X553000Y1139080D01*
X550460Y1136540D01*
X547920D01*
X550460Y1134000D01*
X547920Y1131460D01*
X550460D01*
X553000Y1128920D01*
Y1118920D02*
X555540Y1121460D01*
X558080D01*
X555540Y1124000D01*
X558080Y1126540D01*
X555540D01*
X553000Y1129080D01*
X550460Y1126540D01*
X547920D01*
X550460Y1124000D01*
X547920Y1121460D01*
X550460D01*
X553000Y1118920D01*
Y1108920D02*
X555540Y1111460D01*
X558080D01*
X555540Y1114000D01*
X558080Y1116540D01*
X555540D01*
X553000Y1119080D01*
X550460Y1116540D01*
X547920D01*
X550460Y1114000D01*
X547920Y1111460D01*
X550460D01*
X553000Y1108920D01*
D109*
X1262580Y837000D02*
G03*
X1262580Y837000I-5080J0D01*
G01*
X1382580D02*
G03*
X1382580Y837000I-5080J0D01*
G01*
Y715000D02*
G03*
X1382580Y715000I-5080J0D01*
G01*
X1262580D02*
G03*
X1262580Y715000I-5080J0D01*
G01*
M02*
