M48
;Layer_Color=9474304
;FILE_FORMAT=4:4
METRIC,TZ
;TYPE=PLATED
T01F00S00C0.3000
T02F00S00C0.5000
T03F00S00C0.7000
T04F00S00C0.7500
T05F00S00C0.8128
T06F00S00C0.9900
T07F00S00C1.2900
T08F00S00C1.3000
T09F00S00C1.3200
T10F00S00C2.5000
%
T01
X1205000Y685000
X1186000Y775000
X1125000Y725000
X1001000Y731000
X953450Y725950
X688000Y1071000
X752500Y1182500
Y1190000
X762500
X772500
X782500
Y1182500
X553000Y1134000
Y1124000
Y1114000
X546000Y1106000
X535000Y1105000
X524000Y1106000
X523000Y1115000
Y1124000
Y1134000
X532500Y1135500
X543000Y1136000
X840000Y947500
X845000Y952500
X827500Y885000
X822525Y885368
X815000Y858000
X931000Y823080
X937500Y827500
X944590Y827910
X947960Y899960
X965000Y915000
X972500
X1338500Y1099500
X1378000Y1100000
X1423400Y1099400
X1399500Y1177500
X1370000Y1174000
X1360000Y1182000
X1370000Y1150000
X782500Y1197500
X772500
X762500
X752500
T02
X992500Y604980
Y635000
Y647500
X970000Y682500
X1026000Y582500
X697500Y707500
Y730000
X690000Y760000
X680000
X622500Y707500
Y902500
X685000Y957500
X692500
X737500Y927350
Y855000
X747500
X777500Y842500
X787500Y965000
X877500Y967500
X902000Y945000
X913364Y944623
X927036Y935000
X917500Y910000
X965000Y905000
X1040020Y914898
X1047500Y915000
X1050000Y930000
X1115000Y927500
X1120000Y1040000
Y1047500
Y1055000
X1112500
X1105000
X1182000Y1111000
X925000Y1100000
X930000Y1165000
X907500
X887500
X865000
X845000
Y1190000
X865000
X887500
X907500
X930000
X890000Y1044980
X867500Y917500
X862500Y880000
X811000Y882000
X805000Y842500
X815000Y830000
X852500Y812500
X883000Y820000
X902000Y797000
X930000Y805000
X980000Y807500
X912500Y857500
X1275000Y1002500
X1287500Y1012500
X1312500Y1025000
X1337500Y980000
X1375000Y963750
X1412500Y972500
X1392500Y995000
X1375000Y1043750
X1412500Y1047500
X1450000Y982500
X1265000Y1172500
X930000Y1212500
X907500
X887500
X865000
X845000
T03
X1115000Y976000
T04
X1257500Y772500
X975000Y1020000
X960000
X890000
X872500
X1230000Y830000
Y812500
T05
X759200Y810000
X784600
X810000
X835400
T06
X725000Y600000
Y645000
X790000
Y600000
T07
X1317500Y695000
T08
X1467500Y730000
Y780000
X942500Y620000
X892500
X532500Y727500
Y777500
X535000Y935001
Y985001
X537000Y1122000
Y1172000
X1467500Y830000
T09
X1257500Y715000
X1377500
Y837000
X1257500
T10
X1500000Y587500
X502500
X1500000Y1237500
X502500
M30
