G04*
G04 #@! TF.GenerationSoftware,Altium Limited,Altium Designer,25.2.1 (25)*
G04*
G04 Layer_Color=128*
%FSLAX44Y44*%
%MOMM*%
G71*
G04*
G04 #@! TF.SameCoordinates,6A0C6451-6BFE-4A27-B80D-F8B4996A6162*
G04*
G04*
G04 #@! TF.FilePolarity,Positive*
G04*
G01*
G75*
%ADD12C,0.1270*%
D12*
X720050Y645000D02*
X729950D01*
X725000Y640050D02*
Y649950D01*
X785050Y645000D02*
X794950D01*
X790000Y640050D02*
Y649950D01*
X720050Y600000D02*
X729950D01*
X725000Y595050D02*
Y604950D01*
X785050Y600000D02*
X794950D01*
X790000Y595050D02*
Y604950D01*
X886000Y620000D02*
X899000D01*
X892500Y613500D02*
Y626500D01*
X936000Y620000D02*
X949000D01*
X942500Y613500D02*
Y626500D01*
X1487500Y1237500D02*
X1512500D01*
X1500000Y1225000D02*
Y1250000D01*
X831336Y810000D02*
X839464D01*
X835400Y805936D02*
Y814064D01*
X805936Y810000D02*
X814064D01*
X810000Y805936D02*
Y814064D01*
X780536Y810000D02*
X788664D01*
X784600Y805936D02*
Y814064D01*
X755136Y810000D02*
X763264D01*
X759200Y805936D02*
Y814064D01*
X530500Y1172000D02*
X543500D01*
X537000Y1165500D02*
Y1178500D01*
X530500Y1122000D02*
X543500D01*
X537000Y1115500D02*
Y1128500D01*
X490000Y587500D02*
X515000D01*
X502500Y575000D02*
Y600000D01*
X1250900Y837000D02*
X1264100D01*
X1257500Y830400D02*
Y843600D01*
X1370900Y837000D02*
X1384100D01*
X1377500Y830400D02*
Y843600D01*
X1370900Y715000D02*
X1384100D01*
X1377500Y708400D02*
Y721600D01*
X1311050Y695000D02*
X1323950D01*
X1317500Y688550D02*
Y701450D01*
X1250900Y715000D02*
X1264100D01*
X1257500Y708400D02*
Y721600D01*
X1461000Y830000D02*
X1474000D01*
X1467500Y823500D02*
Y836500D01*
X1461000Y730000D02*
X1474000D01*
X1467500Y723500D02*
Y736500D01*
X1461000Y780000D02*
X1474000D01*
X1467500Y773500D02*
Y786500D01*
X526001Y727500D02*
X539001D01*
X532500Y721000D02*
Y734000D01*
X526001Y777500D02*
X539001D01*
X532500Y771000D02*
Y784000D01*
X528501Y935001D02*
X541501D01*
X535000Y928501D02*
Y941501D01*
X528501Y985001D02*
X541501D01*
X535000Y978501D02*
Y991500D01*
X1487500Y587500D02*
X1512500D01*
X1500000Y575000D02*
Y600000D01*
X490000Y1237500D02*
X515000D01*
X502500Y1225000D02*
Y1250000D01*
X1179500Y1111000D02*
X1184500D01*
X1182000Y1108500D02*
Y1113500D01*
X686500Y1071000D02*
X689500D01*
X688000Y1069500D02*
Y1072500D01*
X999500Y731000D02*
X1002500D01*
X1001000Y729500D02*
Y732500D01*
X813500Y858000D02*
X816500D01*
X815000Y856500D02*
Y859500D01*
X808500Y882000D02*
X813500D01*
X811000Y879500D02*
Y884500D01*
X821025Y885368D02*
X824025D01*
X822525Y883868D02*
Y886868D01*
X899500Y797000D02*
X904500D01*
X902000Y794500D02*
Y799500D01*
X927500Y805000D02*
X932500D01*
X930000Y802500D02*
Y807500D01*
X899500Y945000D02*
X904500D01*
X902000Y942500D02*
Y947500D01*
X880500Y820000D02*
X885500D01*
X883000Y817500D02*
Y822500D01*
X1111500Y976000D02*
X1118500D01*
X1115000Y972500D02*
Y979500D01*
X826000Y885000D02*
X829000D01*
X827500Y883500D02*
Y886500D01*
X936000Y827500D02*
X939000D01*
X937500Y826000D02*
Y829000D01*
X868750Y1020000D02*
X876250D01*
X872500Y1016250D02*
Y1023750D01*
X971250Y1020000D02*
X978750D01*
X975000Y1016250D02*
Y1023750D01*
X745000Y855000D02*
X750000D01*
X747500Y852500D02*
Y857500D01*
X687500Y760000D02*
X692500D01*
X690000Y757500D02*
Y762500D01*
X1226250Y812500D02*
X1233750D01*
X1230000Y808750D02*
Y816250D01*
X1226250Y830000D02*
X1233750D01*
X1230000Y826250D02*
Y833750D01*
X910864Y944623D02*
X915864D01*
X913364Y942123D02*
Y947123D01*
X1253750Y772500D02*
X1261250D01*
X1257500Y768750D02*
Y776250D01*
X1368500Y1174000D02*
X1371500D01*
X1370000Y1172500D02*
Y1175500D01*
X1337000Y1099500D02*
X1340000D01*
X1338500Y1098000D02*
Y1101000D01*
X1376500Y1100000D02*
X1379500D01*
X1378000Y1098500D02*
Y1101500D01*
X1421900Y1099400D02*
X1424900D01*
X1423400Y1097900D02*
Y1100900D01*
X1184500Y775000D02*
X1187500D01*
X1186000Y773500D02*
Y776500D01*
X1368500Y1150000D02*
X1371500D01*
X1370000Y1148500D02*
Y1151500D01*
X1398000Y1177500D02*
X1401000D01*
X1399500Y1176000D02*
Y1179000D01*
X1358500Y1182000D02*
X1361500D01*
X1360000Y1180500D02*
Y1183500D01*
X946460Y899960D02*
X949460D01*
X947960Y898460D02*
Y901460D01*
X943090Y827910D02*
X946090D01*
X944590Y826410D02*
Y829410D01*
X929500Y823080D02*
X932500D01*
X931000Y821580D02*
Y824580D01*
X521500Y1134000D02*
X524500D01*
X523000Y1132500D02*
Y1135500D01*
X541500Y1136000D02*
X544500D01*
X543000Y1134500D02*
Y1137500D01*
X521500Y1124000D02*
X524500D01*
X523000Y1122500D02*
Y1125500D01*
X521500Y1115000D02*
X524500D01*
X523000Y1113500D02*
Y1116500D01*
X522500Y1106000D02*
X525500D01*
X524000Y1104500D02*
Y1107500D01*
X533500Y1105000D02*
X536500D01*
X535000Y1103500D02*
Y1106500D01*
X544500Y1106000D02*
X547500D01*
X546000Y1104500D02*
Y1107500D01*
X677500Y760000D02*
X682500D01*
X680000Y757500D02*
Y762500D01*
X1102500Y1055000D02*
X1107500D01*
X1105000Y1052500D02*
Y1057500D01*
X1110000Y1055000D02*
X1115000D01*
X1112500Y1052500D02*
Y1057500D01*
X1117500Y1055000D02*
X1122500D01*
X1120000Y1052500D02*
Y1057500D01*
X1117500Y1047500D02*
X1122500D01*
X1120000Y1045000D02*
Y1050000D01*
X1117500Y1040000D02*
X1122500D01*
X1120000Y1037500D02*
Y1042500D01*
X1203500Y685000D02*
X1206500D01*
X1205000Y683500D02*
Y686500D01*
X922500Y1100000D02*
X927500D01*
X925000Y1097500D02*
Y1102500D01*
X1262500Y1172500D02*
X1267500D01*
X1265000Y1170000D02*
Y1175000D01*
X1410000Y972500D02*
X1415000D01*
X1412500Y970000D02*
Y975000D01*
X1372500Y963750D02*
X1377500D01*
X1375000Y961250D02*
Y966250D01*
X1447500Y982500D02*
X1452500D01*
X1450000Y980000D02*
Y985000D01*
X1390000Y995000D02*
X1395000D01*
X1392500Y992500D02*
Y997500D01*
X1112500Y927500D02*
X1117500D01*
X1115000Y925000D02*
Y930000D01*
X1047500D02*
X1052500D01*
X1050000Y927500D02*
Y932500D01*
X967500Y682500D02*
X972500D01*
X970000Y680000D02*
Y685000D01*
X990000Y647500D02*
X995000D01*
X992500Y645000D02*
Y650000D01*
X1023500Y582500D02*
X1028500D01*
X1026000Y580000D02*
Y585000D01*
X990000Y604980D02*
X995000D01*
X992500Y602480D02*
Y607480D01*
X1335000Y980000D02*
X1340000D01*
X1337500Y977500D02*
Y982500D01*
X850000Y812500D02*
X855000D01*
X852500Y810000D02*
Y815000D01*
X695000Y730000D02*
X700000D01*
X697500Y727500D02*
Y732500D01*
X695000Y707500D02*
X700000D01*
X697500Y705000D02*
Y710000D01*
X977500Y807500D02*
X982500D01*
X980000Y805000D02*
Y810000D01*
X924536Y935000D02*
X929536D01*
X927036Y932500D02*
Y937500D01*
X775000Y842500D02*
X780000D01*
X777500Y840000D02*
Y845000D01*
X802500Y842500D02*
X807500D01*
X805000Y840000D02*
Y845000D01*
X812500Y830000D02*
X817500D01*
X815000Y827500D02*
Y832500D01*
X910000Y857500D02*
X915000D01*
X912500Y855000D02*
Y860000D01*
X963500Y915000D02*
X966500D01*
X965000Y913500D02*
Y916500D01*
X860000Y880000D02*
X865000D01*
X862500Y877500D02*
Y882500D01*
X865000Y917500D02*
X870000D01*
X867500Y915000D02*
Y920000D01*
X735000Y855000D02*
X740000D01*
X737500Y852500D02*
Y857500D01*
X735000Y927350D02*
X740000D01*
X737500Y924850D02*
Y929850D01*
X951950Y725950D02*
X954950D01*
X953450Y724450D02*
Y727450D01*
X915000Y910000D02*
X920000D01*
X917500Y907500D02*
Y912500D01*
X785000Y965000D02*
X790000D01*
X787500Y962500D02*
Y967500D01*
X761000Y1197500D02*
X764000D01*
X762500Y1196000D02*
Y1199000D01*
X771000Y1197500D02*
X774000D01*
X772500Y1196000D02*
Y1199000D01*
X781000Y1197500D02*
X784000D01*
X782500Y1196000D02*
Y1199000D01*
X751000Y1197500D02*
X754000D01*
X752500Y1196000D02*
Y1199000D01*
X751000Y1190000D02*
X754000D01*
X752500Y1188500D02*
Y1191500D01*
X751000Y1182500D02*
X754000D01*
X752500Y1181000D02*
Y1184000D01*
X781000Y1182500D02*
X784000D01*
X782500Y1181000D02*
Y1184000D01*
X781000Y1190000D02*
X784000D01*
X782500Y1188500D02*
Y1191500D01*
X771000Y1190000D02*
X774000D01*
X772500Y1188500D02*
Y1191500D01*
X761000Y1190000D02*
X764000D01*
X762500Y1188500D02*
Y1191500D01*
X875000Y967500D02*
X880000D01*
X877500Y965000D02*
Y970000D01*
X843500Y952500D02*
X846500D01*
X845000Y951000D02*
Y954000D01*
X1045000Y915000D02*
X1050000D01*
X1047500Y912500D02*
Y917500D01*
X690000Y957500D02*
X695000D01*
X692500Y955000D02*
Y960000D01*
X682500Y957500D02*
X687500D01*
X685000Y955000D02*
Y960000D01*
X620000Y902500D02*
X625000D01*
X622500Y900000D02*
Y905000D01*
X887500Y1044980D02*
X892500D01*
X890000Y1042480D02*
Y1047480D01*
X886250Y1020000D02*
X893750D01*
X890000Y1016250D02*
Y1023750D01*
X1037520Y914898D02*
X1042520D01*
X1040020Y912398D02*
Y917398D01*
X956250Y1020000D02*
X963750D01*
X960000Y1016250D02*
Y1023750D01*
X962500Y905000D02*
X967500D01*
X965000Y902500D02*
Y907500D01*
X971000Y915000D02*
X974000D01*
X972500Y913500D02*
Y916500D01*
X838500Y947500D02*
X841500D01*
X840000Y946000D02*
Y949000D01*
X1410000Y1047500D02*
X1415000D01*
X1412500Y1045000D02*
Y1050000D01*
X1372500Y1043750D02*
X1377500D01*
X1375000Y1041250D02*
Y1046250D01*
X1285000Y1012500D02*
X1290000D01*
X1287500Y1010000D02*
Y1015000D01*
X1310000Y1025000D02*
X1315000D01*
X1312500Y1022500D02*
Y1027500D01*
X1272500Y1002500D02*
X1277500D01*
X1275000Y1000000D02*
Y1005000D01*
X1123500Y725000D02*
X1126500D01*
X1125000Y723500D02*
Y726500D01*
X842500Y1212500D02*
X847500D01*
X845000Y1210000D02*
Y1215000D01*
X862500Y1212500D02*
X867500D01*
X865000Y1210000D02*
Y1215000D01*
X885000Y1212500D02*
X890000D01*
X887500Y1210000D02*
Y1215000D01*
X905000Y1212500D02*
X910000D01*
X907500Y1210000D02*
Y1215000D01*
X905000Y1190000D02*
X910000D01*
X907500Y1187500D02*
Y1192500D01*
X885000Y1190000D02*
X890000D01*
X887500Y1187500D02*
Y1192500D01*
X862500Y1190000D02*
X867500D01*
X865000Y1187500D02*
Y1192500D01*
X842500Y1190000D02*
X847500D01*
X845000Y1187500D02*
Y1192500D01*
X927500Y1212500D02*
X932500D01*
X930000Y1210000D02*
Y1215000D01*
X927500Y1190000D02*
X932500D01*
X930000Y1187500D02*
Y1192500D01*
X885000Y1165000D02*
X890000D01*
X887500Y1162500D02*
Y1167500D01*
X905000Y1165000D02*
X910000D01*
X907500Y1162500D02*
Y1167500D01*
X927500Y1165000D02*
X932500D01*
X930000Y1162500D02*
Y1167500D01*
X842500Y1165000D02*
X847500D01*
X845000Y1162500D02*
Y1167500D01*
X862500Y1165000D02*
X867500D01*
X865000Y1162500D02*
Y1167500D01*
X990000Y635000D02*
X995000D01*
X992500Y632500D02*
Y637500D01*
X620000Y707500D02*
X625000D01*
X622500Y705000D02*
Y710000D01*
X531000Y1135500D02*
X534000D01*
X532500Y1134000D02*
Y1137000D01*
X551500Y1134000D02*
X554500D01*
X553000Y1132500D02*
Y1135500D01*
X551500Y1124000D02*
X554500D01*
X553000Y1122500D02*
Y1125500D01*
X551500Y1114000D02*
X554500D01*
X553000Y1112500D02*
Y1115500D01*
M02*
