G04*
G04 #@! TF.GenerationSoftware,Altium Limited,Altium Designer,25.2.1 (25)*
G04*
G04 Layer_Color=32768*
%FSLAX44Y44*%
%MOMM*%
G71*
G04*
G04 #@! TF.SameCoordinates,6A0C6451-6BFE-4A27-B80D-F8B4996A6162*
G04*
G04*
G04 #@! TF.FilePolarity,Positive*
G04*
G01*
G75*
%ADD14C,0.1000*%
%ADD106C,0.0500*%
D14*
X915024Y624999D02*
Y617382D01*
X914548Y615953D01*
X914072Y615477D01*
X913120Y615001D01*
X912168D01*
X911216Y615477D01*
X910740Y615953D01*
X910264Y617382D01*
Y618334D01*
X922356Y624999D02*
X917595Y618334D01*
X924737D01*
X922356Y624999D02*
Y615001D01*
X541999Y1149238D02*
X534381D01*
X532953Y1149714D01*
X532477Y1150190D01*
X532001Y1151142D01*
Y1152094D01*
X532477Y1153046D01*
X532953Y1153522D01*
X534381Y1153998D01*
X535334D01*
X541999Y1140954D02*
Y1145714D01*
X537714Y1146191D01*
X538190Y1145714D01*
X538666Y1144286D01*
Y1142858D01*
X538190Y1141430D01*
X537238Y1140478D01*
X535810Y1140002D01*
X534858D01*
X533429Y1140478D01*
X532477Y1141430D01*
X532001Y1142858D01*
Y1144286D01*
X532477Y1145714D01*
X532953Y1146191D01*
X533905Y1146667D01*
X631468Y750166D02*
X638132D01*
X639798Y751832D01*
Y755164D01*
X638132Y756830D01*
X631468D01*
X629801Y755164D01*
Y751832D01*
X633134Y753498D02*
X629801Y750166D01*
Y751832D02*
X631468Y750166D01*
X638132Y746834D02*
X639798Y745167D01*
Y741835D01*
X638132Y740169D01*
X636466D01*
X634800Y741835D01*
Y743501D01*
Y741835D01*
X633134Y740169D01*
X631468D01*
X629801Y741835D01*
Y745167D01*
X631468Y746834D01*
X1462501Y779905D02*
X1470118D01*
X1471547Y779429D01*
X1472023Y778953D01*
X1472499Y778001D01*
Y777048D01*
X1472023Y776096D01*
X1471547Y775620D01*
X1470118Y775144D01*
X1469166D01*
X1464405Y782476D02*
X1463929Y783428D01*
X1462501Y784856D01*
X1472499D01*
X537499Y754737D02*
X529882D01*
X528453Y755214D01*
X527977Y755690D01*
X527501Y756642D01*
Y757594D01*
X527977Y758546D01*
X528453Y759022D01*
X529882Y759498D01*
X530834D01*
X537499Y751215D02*
Y745977D01*
X533690Y748834D01*
Y747406D01*
X533214Y746454D01*
X532738Y745977D01*
X531310Y745501D01*
X530358D01*
X528930Y745977D01*
X527977Y746930D01*
X527501Y748358D01*
Y749786D01*
X527977Y751215D01*
X528453Y751691D01*
X529406Y752167D01*
X539999Y962238D02*
X532382D01*
X530953Y962714D01*
X530477Y963190D01*
X530001Y964142D01*
Y965094D01*
X530477Y966047D01*
X530953Y966523D01*
X532382Y966999D01*
X533334D01*
X537619Y959191D02*
X538095D01*
X539047Y958715D01*
X539523Y958239D01*
X539999Y957287D01*
Y955382D01*
X539523Y954430D01*
X539047Y953954D01*
X538095Y953478D01*
X537143D01*
X536190Y953954D01*
X534762Y954906D01*
X530001Y959667D01*
Y953002D01*
X631668Y945000D02*
X638332D01*
X639998Y946666D01*
Y949998D01*
X638332Y951665D01*
X631668D01*
X630002Y949998D01*
Y946666D01*
X633334Y948332D02*
X630002Y945000D01*
Y946666D02*
X631668Y945000D01*
X630002Y941668D02*
Y938335D01*
Y940002D01*
X639998D01*
X638332Y941668D01*
D106*
X1387335Y1191499D02*
Y1186501D01*
X1389834D01*
X1390667Y1187334D01*
Y1190666D01*
X1389834Y1191499D01*
X1387335D01*
X1395666Y1186501D02*
X1392333D01*
X1395666Y1189833D01*
Y1190666D01*
X1394832Y1191499D01*
X1393166D01*
X1392333Y1190666D01*
M02*
