G04*
G04 #@! TF.GenerationSoftware,Altium Limited,Altium Designer,25.2.1 (25)*
G04*
G04 Layer_Physical_Order=1*
G04 Layer_Color=255*
%FSLAX44Y44*%
%MOMM*%
G71*
G04*
G04 #@! TF.SameCoordinates,6A0C6451-6BFE-4A27-B80D-F8B4996A6162*
G04*
G04*
G04 #@! TF.FilePolarity,Positive*
G04*
G01*
G75*
%ADD16C,0.2500*%
%ADD18R,1.4000X1.3000*%
G04:AMPARAMS|DCode=19|XSize=0.28mm|YSize=1.56mm|CornerRadius=0.07mm|HoleSize=0mm|Usage=FLASHONLY|Rotation=0.000|XOffset=0mm|YOffset=0mm|HoleType=Round|Shape=RoundedRectangle|*
%AMROUNDEDRECTD19*
21,1,0.2800,1.4200,0,0,0.0*
21,1,0.1400,1.5600,0,0,0.0*
1,1,0.1400,0.0700,-0.7100*
1,1,0.1400,-0.0700,-0.7100*
1,1,0.1400,-0.0700,0.7100*
1,1,0.1400,0.0700,0.7100*
%
%ADD19ROUNDEDRECTD19*%
G04:AMPARAMS|DCode=20|XSize=0.28mm|YSize=1.56mm|CornerRadius=0.07mm|HoleSize=0mm|Usage=FLASHONLY|Rotation=90.000|XOffset=0mm|YOffset=0mm|HoleType=Round|Shape=RoundedRectangle|*
%AMROUNDEDRECTD20*
21,1,0.2800,1.4200,0,0,90.0*
21,1,0.1400,1.5600,0,0,90.0*
1,1,0.1400,0.7100,0.0700*
1,1,0.1400,0.7100,-0.0700*
1,1,0.1400,-0.7100,-0.0700*
1,1,0.1400,-0.7100,0.0700*
%
%ADD20ROUNDEDRECTD20*%
%ADD21R,1.3000X1.4000*%
%ADD22R,1.0200X1.0400*%
%ADD23R,1.1500X1.3500*%
%ADD24R,1.0400X1.0200*%
%ADD25R,0.6000X0.6000*%
%ADD26R,0.7000X0.9000*%
G04:AMPARAMS|DCode=27|XSize=1.31mm|YSize=3.24mm|CornerRadius=0.0983mm|HoleSize=0mm|Usage=FLASHONLY|Rotation=270.000|XOffset=0mm|YOffset=0mm|HoleType=Round|Shape=RoundedRectangle|*
%AMROUNDEDRECTD27*
21,1,1.3100,3.0435,0,0,270.0*
21,1,1.1135,3.2400,0,0,270.0*
1,1,0.1965,-1.5218,-0.5568*
1,1,0.1965,-1.5218,0.5568*
1,1,0.1965,1.5218,0.5568*
1,1,0.1965,1.5218,-0.5568*
%
%ADD27ROUNDEDRECTD27*%
G04:AMPARAMS|DCode=28|XSize=1.31mm|YSize=0.93mm|CornerRadius=0.0698mm|HoleSize=0mm|Usage=FLASHONLY|Rotation=270.000|XOffset=0mm|YOffset=0mm|HoleType=Round|Shape=RoundedRectangle|*
%AMROUNDEDRECTD28*
21,1,1.3100,0.7905,0,0,270.0*
21,1,1.1705,0.9300,0,0,270.0*
1,1,0.1395,-0.3953,-0.5853*
1,1,0.1395,-0.3953,0.5853*
1,1,0.1395,0.3953,0.5853*
1,1,0.1395,0.3953,-0.5853*
%
%ADD28ROUNDEDRECTD28*%
%ADD29R,0.9900X3.7900*%
%ADD30R,0.8000X0.5000*%
%ADD31R,1.0500X1.3000*%
%ADD32R,2.3114X5.6134*%
%ADD33R,1.3500X1.1500*%
%ADD34R,1.0900X1.0800*%
%ADD35R,2.9000X5.4000*%
%ADD36R,2.0000X4.0000*%
%ADD37R,2.2800X2.1200*%
%ADD38R,1.3000X1.8000*%
G04:AMPARAMS|DCode=39|XSize=1.1mm|YSize=0.9mm|CornerRadius=0.225mm|HoleSize=0mm|Usage=FLASHONLY|Rotation=270.000|XOffset=0mm|YOffset=0mm|HoleType=Round|Shape=RoundedRectangle|*
%AMROUNDEDRECTD39*
21,1,1.1000,0.4500,0,0,270.0*
21,1,0.6500,0.9000,0,0,270.0*
1,1,0.4500,-0.2250,-0.3250*
1,1,0.4500,-0.2250,0.3250*
1,1,0.4500,0.2250,0.3250*
1,1,0.4500,0.2250,-0.3250*
%
%ADD39ROUNDEDRECTD39*%
%ADD40R,0.9300X1.0100*%
%ADD41R,1.2000X1.2000*%
%ADD42R,1.2000X1.2000*%
%ADD43R,1.9812X0.5334*%
%ADD86R,10.8400X7.8800*%
%ADD87C,1.0000*%
%ADD88C,0.5000*%
%ADD89C,2.0000*%
%ADD90C,0.2540*%
%ADD91C,1.4980*%
%ADD92R,1.4980X1.4980*%
G04:AMPARAMS|DCode=93|XSize=1.95mm|YSize=1.95mm|CornerRadius=0.4875mm|HoleSize=0mm|Usage=FLASHONLY|Rotation=0.000|XOffset=0mm|YOffset=0mm|HoleType=Round|Shape=RoundedRectangle|*
%AMROUNDEDRECTD93*
21,1,1.9500,0.9750,0,0,0.0*
21,1,0.9750,1.9500,0,0,0.0*
1,1,0.9750,0.4875,-0.4875*
1,1,0.9750,-0.4875,-0.4875*
1,1,0.9750,-0.4875,0.4875*
1,1,0.9750,0.4875,0.4875*
%
%ADD93ROUNDEDRECTD93*%
%ADD94C,1.9500*%
%ADD95C,3.0000*%
%ADD96R,1.1628X1.1628*%
%ADD97C,1.1628*%
G04:AMPARAMS|DCode=98|XSize=1.95mm|YSize=1.95mm|CornerRadius=0.4875mm|HoleSize=0mm|Usage=FLASHONLY|Rotation=270.000|XOffset=0mm|YOffset=0mm|HoleType=Round|Shape=RoundedRectangle|*
%AMROUNDEDRECTD98*
21,1,1.9500,0.9750,0,0,270.0*
21,1,0.9750,1.9500,0,0,270.0*
1,1,0.9750,-0.4875,-0.4875*
1,1,0.9750,-0.4875,0.4875*
1,1,0.9750,0.4875,0.4875*
1,1,0.9750,0.4875,-0.4875*
%
%ADD98ROUNDEDRECTD98*%
%ADD99C,1.9800*%
%ADD100C,1.9350*%
%ADD101R,1.9800X1.9800*%
%ADD102C,0.7000*%
%ADD103C,0.5000*%
%ADD104C,1.0000*%
%ADD105C,1.5000*%
G36*
X786000Y1178000D02*
X749000D01*
Y1201000D01*
X786000D01*
Y1178000D01*
D02*
G37*
G36*
X942500Y1217500D02*
Y1147500D01*
X940000Y1145000D01*
X842500D01*
X837500Y1150000D01*
Y1220000D01*
X940000D01*
X942500Y1217500D01*
D02*
G37*
G36*
X1191000Y1215000D02*
Y1105000D01*
X1172000D01*
Y1216000D01*
X1190586D01*
X1191000Y1215000D01*
D02*
G37*
G36*
X557500Y1138000D02*
Y1105500D01*
X552500Y1100500D01*
X520000D01*
X517500Y1103000D01*
Y1138000D01*
X520000Y1140500D01*
X555000D01*
X557500Y1138000D01*
D02*
G37*
G36*
X927226Y1097264D02*
X927025Y1097016D01*
X926848Y1096757D01*
X926695Y1096487D01*
X926565Y1096207D01*
X926459Y1095915D01*
X926376Y1095612D01*
X926341Y1095424D01*
X926384Y1095161D01*
X926473Y1094829D01*
X926588Y1094547D01*
X926727Y1094315D01*
X926892Y1094133D01*
X927083Y1094002D01*
X927299Y1093920D01*
X927540Y1093889D01*
X922460D01*
X922701Y1093920D01*
X922917Y1094002D01*
X923108Y1094133D01*
X923273Y1094315D01*
X923412Y1094547D01*
X923527Y1094829D01*
X923616Y1095161D01*
X923659Y1095424D01*
X923624Y1095612D01*
X923541Y1095915D01*
X923435Y1096207D01*
X923305Y1096487D01*
X923152Y1096757D01*
X922975Y1097016D01*
X922774Y1097264D01*
X922550Y1097501D01*
X927450D01*
X927226Y1097264D01*
D02*
G37*
G36*
X1391283Y1052777D02*
X1391321Y1052345D01*
X1391384Y1051964D01*
X1391473Y1051634D01*
X1391588Y1051355D01*
X1391727Y1051126D01*
X1391892Y1050948D01*
X1392083Y1050821D01*
X1392299Y1050745D01*
X1392540Y1050720D01*
X1387460D01*
X1387701Y1050745D01*
X1387917Y1050821D01*
X1388108Y1050948D01*
X1388273Y1051126D01*
X1388412Y1051355D01*
X1388527Y1051634D01*
X1388616Y1051964D01*
X1388679Y1052345D01*
X1388717Y1052777D01*
X1388730Y1053260D01*
X1391270D01*
X1391283Y1052777D01*
D02*
G37*
G36*
X1431283Y1052776D02*
X1431321Y1052345D01*
X1431384Y1051964D01*
X1431473Y1051634D01*
X1431588Y1051354D01*
X1431727Y1051125D01*
X1431892Y1050948D01*
X1432083Y1050821D01*
X1432299Y1050744D01*
X1432540Y1050719D01*
X1428280D01*
X1428366Y1050744D01*
X1428442Y1050821D01*
X1428510Y1050948D01*
X1428568Y1051125D01*
X1428618Y1051354D01*
X1428658Y1051634D01*
X1428712Y1052345D01*
X1428730Y1053259D01*
X1431270D01*
X1431283Y1052776D01*
D02*
G37*
G36*
X1351283Y1051527D02*
X1351321Y1051095D01*
X1351384Y1050714D01*
X1351473Y1050384D01*
X1351588Y1050105D01*
X1351727Y1049876D01*
X1351892Y1049698D01*
X1352083Y1049571D01*
X1352299Y1049495D01*
X1352540Y1049470D01*
X1348280D01*
X1348365Y1049495D01*
X1348442Y1049571D01*
X1348510Y1049698D01*
X1348568Y1049876D01*
X1348618Y1050105D01*
X1348658Y1050384D01*
X1348712Y1051095D01*
X1348730Y1052010D01*
X1351270D01*
X1351283Y1051527D01*
D02*
G37*
G36*
X1410000Y1045050D02*
X1409764Y1045274D01*
X1409516Y1045475D01*
X1409257Y1045652D01*
X1408987Y1045805D01*
X1408707Y1045935D01*
X1408415Y1046041D01*
X1408112Y1046124D01*
X1407799Y1046183D01*
X1407474Y1046218D01*
X1407139Y1046230D01*
Y1048770D01*
X1407474Y1048782D01*
X1407799Y1048817D01*
X1408112Y1048876D01*
X1408415Y1048959D01*
X1408707Y1049065D01*
X1408987Y1049195D01*
X1409257Y1049348D01*
X1409516Y1049525D01*
X1409764Y1049726D01*
X1410000Y1049950D01*
Y1045050D01*
D02*
G37*
G36*
X1399220Y1049799D02*
X1399302Y1049583D01*
X1399433Y1049392D01*
X1399615Y1049227D01*
X1399847Y1049088D01*
X1400129Y1048973D01*
X1400461Y1048884D01*
X1400844Y1048821D01*
X1401277Y1048783D01*
X1401759Y1048770D01*
Y1046230D01*
X1401277Y1046217D01*
X1400844Y1046179D01*
X1400461Y1046116D01*
X1400129Y1046027D01*
X1399847Y1045912D01*
X1399615Y1045773D01*
X1399433Y1045608D01*
X1399302Y1045417D01*
X1399220Y1045201D01*
X1399189Y1044960D01*
Y1050040D01*
X1399220Y1049799D01*
D02*
G37*
G36*
X1441720Y1047298D02*
X1441802Y1047082D01*
X1441933Y1046892D01*
X1442115Y1046727D01*
X1442347Y1046587D01*
X1442629Y1046473D01*
X1442961Y1046384D01*
X1443344Y1046320D01*
X1443777Y1046282D01*
X1444259Y1046270D01*
Y1043730D01*
X1443777Y1043717D01*
X1443344Y1043679D01*
X1442961Y1043615D01*
X1442629Y1043526D01*
X1442347Y1043412D01*
X1442115Y1043272D01*
X1441933Y1043107D01*
X1441802Y1042917D01*
X1441720Y1042701D01*
X1441689Y1042460D01*
Y1047540D01*
X1441720Y1047298D01*
D02*
G37*
G36*
X1372500Y1041300D02*
X1372264Y1041524D01*
X1372016Y1041725D01*
X1371757Y1041902D01*
X1371487Y1042055D01*
X1371207Y1042185D01*
X1370915Y1042291D01*
X1370612Y1042374D01*
X1370299Y1042433D01*
X1369974Y1042468D01*
X1369639Y1042480D01*
Y1045020D01*
X1369974Y1045032D01*
X1370299Y1045067D01*
X1370612Y1045126D01*
X1370915Y1045209D01*
X1371207Y1045315D01*
X1371487Y1045445D01*
X1371757Y1045598D01*
X1372016Y1045775D01*
X1372264Y1045976D01*
X1372500Y1046200D01*
Y1041300D01*
D02*
G37*
G36*
X1361720Y1046049D02*
X1361801Y1045833D01*
X1361933Y1045642D01*
X1362115Y1045477D01*
X1362346Y1045338D01*
X1362629Y1045223D01*
X1362961Y1045134D01*
X1363344Y1045071D01*
X1363776Y1045033D01*
X1364259Y1045020D01*
Y1042480D01*
X1363776Y1042467D01*
X1363344Y1042429D01*
X1362961Y1042366D01*
X1362629Y1042277D01*
X1362346Y1042163D01*
X1362115Y1042023D01*
X1361933Y1041858D01*
X1361801Y1041667D01*
X1361720Y1041451D01*
X1361689Y1041210D01*
Y1046290D01*
X1361720Y1046049D01*
D02*
G37*
G36*
X1125000Y1057500D02*
Y1037500D01*
X1122500Y1035000D01*
X1107500D01*
X1100000Y1042500D01*
Y1057500D01*
X1102500Y1060000D01*
X1122500D01*
X1125000Y1057500D01*
D02*
G37*
G36*
X1315236Y1027226D02*
X1315484Y1027025D01*
X1315743Y1026848D01*
X1316013Y1026695D01*
X1316293Y1026565D01*
X1316585Y1026459D01*
X1316888Y1026376D01*
X1317201Y1026317D01*
X1317526Y1026282D01*
X1317861Y1026270D01*
Y1023730D01*
X1317526Y1023718D01*
X1317201Y1023683D01*
X1316888Y1023624D01*
X1316585Y1023541D01*
X1316293Y1023435D01*
X1316013Y1023305D01*
X1315743Y1023152D01*
X1315484Y1022975D01*
X1315236Y1022774D01*
X1315000Y1022550D01*
Y1027450D01*
X1315236Y1027226D01*
D02*
G37*
G36*
X1348311Y1022460D02*
X1348279Y1022701D01*
X1348198Y1022917D01*
X1348066Y1023108D01*
X1347885Y1023273D01*
X1347653Y1023412D01*
X1347370Y1023527D01*
X1347038Y1023616D01*
X1346656Y1023679D01*
X1346223Y1023717D01*
X1345740Y1023730D01*
Y1026270D01*
X1346223Y1026283D01*
X1346656Y1026321D01*
X1347038Y1026384D01*
X1347370Y1026473D01*
X1347653Y1026588D01*
X1347885Y1026727D01*
X1348066Y1026892D01*
X1348198Y1027083D01*
X1348279Y1027299D01*
X1348311Y1027540D01*
Y1022460D01*
D02*
G37*
G36*
X1394799Y1021780D02*
X1394583Y1021699D01*
X1394392Y1021567D01*
X1394227Y1021385D01*
X1394088Y1021153D01*
X1393973Y1020871D01*
X1393884Y1020539D01*
X1393821Y1020156D01*
X1393783Y1019724D01*
X1393770Y1019241D01*
X1391230D01*
X1391217Y1019724D01*
X1391179Y1020156D01*
X1391116Y1020539D01*
X1391027Y1020871D01*
X1390912Y1021153D01*
X1390773Y1021385D01*
X1390608Y1021567D01*
X1390417Y1021699D01*
X1390201Y1021780D01*
X1389960Y1021811D01*
X1395040D01*
X1394799Y1021780D01*
D02*
G37*
G36*
X1437299Y1021780D02*
X1437083Y1021698D01*
X1436892Y1021567D01*
X1436727Y1021385D01*
X1436588Y1021153D01*
X1436473Y1020871D01*
X1436384Y1020539D01*
X1436321Y1020156D01*
X1436283Y1019723D01*
X1436270Y1019240D01*
X1433730D01*
X1433717Y1019723D01*
X1433679Y1020156D01*
X1433616Y1020539D01*
X1433527Y1020871D01*
X1433412Y1021153D01*
X1433273Y1021385D01*
X1433108Y1021567D01*
X1432917Y1021698D01*
X1432701Y1021780D01*
X1432460Y1021811D01*
X1437540D01*
X1437299Y1021780D01*
D02*
G37*
G36*
X1290944Y1013267D02*
X1291070Y1013035D01*
X1291223Y1012830D01*
X1291405Y1012652D01*
X1291615Y1012502D01*
X1291853Y1012379D01*
X1292118Y1012283D01*
X1292412Y1012215D01*
X1292734Y1012174D01*
X1293083Y1012160D01*
X1292708Y1009620D01*
X1292151Y1009616D01*
X1289881Y1009472D01*
X1289530Y1009418D01*
X1288932Y1009285D01*
X1288685Y1009207D01*
X1290846Y1013526D01*
X1290944Y1013267D01*
D02*
G37*
G36*
X1277736Y1004726D02*
X1277984Y1004525D01*
X1278243Y1004348D01*
X1278513Y1004195D01*
X1278793Y1004065D01*
X1279085Y1003959D01*
X1279388Y1003876D01*
X1279701Y1003817D01*
X1280026Y1003782D01*
X1280361Y1003770D01*
Y1001230D01*
X1280026Y1001218D01*
X1279701Y1001183D01*
X1279388Y1001124D01*
X1279085Y1001041D01*
X1278793Y1000935D01*
X1278513Y1000805D01*
X1278243Y1000652D01*
X1277984Y1000475D01*
X1277736Y1000274D01*
X1277499Y1000050D01*
Y1004950D01*
X1277736Y1004726D01*
D02*
G37*
G36*
X1395025Y992269D02*
X1395100Y991418D01*
X1395225Y990667D01*
X1395400Y990015D01*
X1395625Y989462D01*
X1395900Y989008D01*
X1396225Y988655D01*
X1396600Y988400D01*
X1397025Y988245D01*
X1397500Y988189D01*
X1387500D01*
X1387975Y988245D01*
X1388400Y988400D01*
X1388775Y988655D01*
X1389100Y989008D01*
X1389375Y989462D01*
X1389600Y990015D01*
X1389775Y990667D01*
X1389900Y991418D01*
X1389975Y992269D01*
X1390000Y993220D01*
X1395000D01*
X1395025Y992269D01*
D02*
G37*
G36*
X1441745Y987025D02*
X1441900Y986600D01*
X1442155Y986225D01*
X1442509Y985900D01*
X1442962Y985625D01*
X1443515Y985400D01*
X1444167Y985225D01*
X1444918Y985100D01*
X1445769Y985025D01*
X1446720Y985000D01*
Y980000D01*
X1445769Y979975D01*
X1444918Y979900D01*
X1444167Y979775D01*
X1443515Y979600D01*
X1442962Y979375D01*
X1442509Y979100D01*
X1442155Y978775D01*
X1441900Y978400D01*
X1441745Y977975D01*
X1441689Y977500D01*
Y987500D01*
X1441745Y987025D01*
D02*
G37*
G36*
X1345781Y975530D02*
X1345731Y975977D01*
X1345581Y976377D01*
X1345331Y976730D01*
X1344981Y977036D01*
X1344531Y977295D01*
X1343981Y977506D01*
X1343331Y977671D01*
X1342581Y977789D01*
X1341731Y977859D01*
X1340781Y977883D01*
Y982883D01*
X1341731Y982908D01*
X1342582Y982983D01*
X1343333Y983108D01*
X1343985Y983283D01*
X1344538Y983508D01*
X1344991Y983783D01*
X1345345Y984108D01*
X1345600Y984483D01*
X1345755Y984908D01*
X1345811Y985383D01*
X1345781Y975530D01*
D02*
G37*
G36*
X1121603Y970000D02*
X1069603D01*
Y984000D01*
X1121603D01*
Y970000D01*
D02*
G37*
G36*
X1412465Y969000D02*
X1412139Y968991D01*
X1411822Y968958D01*
X1411514Y968900D01*
X1411215Y968818D01*
X1410924Y968711D01*
X1410643Y968580D01*
X1410371Y968424D01*
X1410107Y968244D01*
X1409852Y968040D01*
X1409607Y967811D01*
X1407811Y969607D01*
X1408040Y969853D01*
X1408244Y970107D01*
X1408424Y970371D01*
X1408580Y970643D01*
X1408711Y970924D01*
X1408818Y971215D01*
X1408900Y971514D01*
X1408958Y971822D01*
X1408991Y972139D01*
X1409000Y972465D01*
X1412465Y969000D01*
D02*
G37*
G36*
X880236Y969726D02*
X880484Y969525D01*
X880743Y969348D01*
X881013Y969195D01*
X881293Y969065D01*
X881585Y968959D01*
X881888Y968876D01*
X882201Y968817D01*
X882526Y968782D01*
X882861Y968770D01*
Y966230D01*
X882526Y966218D01*
X882201Y966183D01*
X881888Y966124D01*
X881585Y966041D01*
X881293Y965935D01*
X881013Y965805D01*
X880743Y965652D01*
X880484Y965475D01*
X880236Y965274D01*
X879999Y965050D01*
Y969950D01*
X880236Y969726D01*
D02*
G37*
G36*
X890561Y964960D02*
X890530Y965201D01*
X890448Y965417D01*
X890317Y965608D01*
X890135Y965773D01*
X889903Y965912D01*
X889621Y966027D01*
X889289Y966116D01*
X888906Y966179D01*
X888473Y966217D01*
X887990Y966230D01*
Y968770D01*
X888473Y968783D01*
X888906Y968821D01*
X889289Y968884D01*
X889621Y968973D01*
X889903Y969088D01*
X890135Y969227D01*
X890317Y969392D01*
X890448Y969583D01*
X890530Y969799D01*
X890561Y970040D01*
Y964960D01*
D02*
G37*
G36*
X1399220Y967299D02*
X1399302Y967083D01*
X1399433Y966893D01*
X1399615Y966728D01*
X1399847Y966588D01*
X1400129Y966474D01*
X1400461Y966385D01*
X1400844Y966321D01*
X1401277Y966283D01*
X1401759Y966270D01*
Y963730D01*
X1401277Y963718D01*
X1400844Y963680D01*
X1400461Y963616D01*
X1400129Y963527D01*
X1399847Y963413D01*
X1399615Y963273D01*
X1399433Y963108D01*
X1399302Y962918D01*
X1399220Y962702D01*
X1399189Y962460D01*
Y967540D01*
X1399220Y967299D01*
D02*
G37*
G36*
X1372500Y961300D02*
X1372264Y961525D01*
X1372016Y961725D01*
X1371757Y961902D01*
X1371487Y962056D01*
X1371207Y962185D01*
X1370915Y962291D01*
X1370612Y962374D01*
X1370299Y962433D01*
X1369974Y962468D01*
X1369639Y962480D01*
Y965020D01*
X1369974Y965032D01*
X1370299Y965068D01*
X1370612Y965126D01*
X1370915Y965209D01*
X1371207Y965315D01*
X1371487Y965445D01*
X1371757Y965599D01*
X1372016Y965776D01*
X1372264Y965976D01*
X1372500Y966200D01*
Y961300D01*
D02*
G37*
G36*
X1359220Y966049D02*
X1359302Y965833D01*
X1359433Y965643D01*
X1359615Y965478D01*
X1359847Y965338D01*
X1360129Y965223D01*
X1360461Y965135D01*
X1360844Y965071D01*
X1361277Y965033D01*
X1361760Y965020D01*
Y962480D01*
X1361277Y962468D01*
X1360844Y962430D01*
X1360461Y962366D01*
X1360129Y962277D01*
X1359847Y962163D01*
X1359615Y962023D01*
X1359433Y961858D01*
X1359302Y961667D01*
X1359220Y961452D01*
X1359189Y961210D01*
Y966290D01*
X1359220Y966049D01*
D02*
G37*
G36*
X1441720Y964799D02*
X1441802Y964583D01*
X1441933Y964392D01*
X1442115Y964227D01*
X1442347Y964088D01*
X1442629Y963973D01*
X1442961Y963884D01*
X1443344Y963821D01*
X1443777Y963783D01*
X1444259Y963770D01*
Y961230D01*
X1443777Y961217D01*
X1443344Y961179D01*
X1442961Y961116D01*
X1442629Y961027D01*
X1442347Y960912D01*
X1442115Y960773D01*
X1441933Y960608D01*
X1441802Y960417D01*
X1441720Y960201D01*
X1441689Y959960D01*
Y965040D01*
X1441720Y964799D01*
D02*
G37*
G36*
X789775Y961019D02*
X789850Y960168D01*
X789975Y959417D01*
X790150Y958764D01*
X790375Y958212D01*
X790650Y957758D01*
X790975Y957404D01*
X791350Y957150D01*
X791775Y956995D01*
X792250Y956939D01*
X782250D01*
X782725Y956995D01*
X783150Y957150D01*
X783525Y957404D01*
X783850Y957758D01*
X784125Y958212D01*
X784350Y958764D01*
X784525Y959417D01*
X784650Y960168D01*
X784725Y961019D01*
X784750Y961969D01*
X789750D01*
X789775Y961019D01*
D02*
G37*
G36*
X846275Y955883D02*
X846313Y955398D01*
X846347Y955184D01*
X846390Y954988D01*
X846443Y954810D01*
X846505Y954651D01*
X846577Y954511D01*
X846659Y954389D01*
X846750Y954285D01*
X843250D01*
X843341Y954389D01*
X843423Y954511D01*
X843495Y954651D01*
X843557Y954810D01*
X843610Y954988D01*
X843653Y955184D01*
X843687Y955398D01*
X843711Y955631D01*
X843730Y956153D01*
X846270D01*
X846275Y955883D01*
D02*
G37*
G36*
X846889Y954159D02*
X847011Y954077D01*
X847151Y954005D01*
X847310Y953943D01*
X847488Y953890D01*
X847684Y953847D01*
X847898Y953813D01*
X848131Y953789D01*
X848653Y953770D01*
Y951230D01*
X848383Y951225D01*
X847898Y951187D01*
X847684Y951153D01*
X847488Y951110D01*
X847310Y951057D01*
X847151Y950995D01*
X847011Y950923D01*
X846889Y950841D01*
X846785Y950750D01*
Y954250D01*
X846889Y954159D01*
D02*
G37*
G36*
X805298Y943029D02*
X805083Y942948D01*
X804892Y942817D01*
X804727Y942635D01*
X804587Y942403D01*
X804473Y942121D01*
X804384Y941788D01*
X804321Y941406D01*
X804283Y940973D01*
X804270Y940490D01*
X801730D01*
X801717Y940973D01*
X801679Y941406D01*
X801616Y941788D01*
X801527Y942121D01*
X801412Y942403D01*
X801273Y942635D01*
X801107Y942817D01*
X800917Y942948D01*
X800701Y943029D01*
X800460Y943061D01*
X805540D01*
X805298Y943029D01*
D02*
G37*
G36*
X863871Y936621D02*
X861209D01*
X861221Y936664D01*
X861231Y936755D01*
X861248Y937085D01*
X861270Y939252D01*
X863810D01*
X863871Y936621D01*
D02*
G37*
G36*
X924388Y939460D02*
X924643Y939256D01*
X924906Y939076D01*
X925179Y938920D01*
X925460Y938789D01*
X925750Y938682D01*
X926049Y938600D01*
X926358Y938542D01*
X926675Y938509D01*
X927001Y938500D01*
X923536Y935035D01*
X923527Y935361D01*
X923493Y935678D01*
X923436Y935986D01*
X923353Y936285D01*
X923247Y936576D01*
X923116Y936857D01*
X922960Y937129D01*
X922780Y937393D01*
X922575Y937647D01*
X922346Y937893D01*
X924143Y939689D01*
X924388Y939460D01*
D02*
G37*
G36*
X804283Y936526D02*
X804321Y936094D01*
X804384Y935711D01*
X804473Y935379D01*
X804587Y935097D01*
X804727Y934865D01*
X804892Y934683D01*
X805083Y934551D01*
X805298Y934470D01*
X805540Y934439D01*
X800460D01*
X800701Y934470D01*
X800917Y934551D01*
X801107Y934683D01*
X801273Y934865D01*
X801412Y935097D01*
X801527Y935379D01*
X801616Y935711D01*
X801679Y936094D01*
X801717Y936526D01*
X801730Y937009D01*
X804270D01*
X804283Y936526D01*
D02*
G37*
G36*
X809470Y930299D02*
X809551Y930083D01*
X809683Y929892D01*
X809865Y929727D01*
X810097Y929587D01*
X810379Y929473D01*
X810711Y929384D01*
X811094Y929321D01*
X811526Y929283D01*
X812009Y929270D01*
Y926730D01*
X811526Y926717D01*
X811094Y926679D01*
X810711Y926616D01*
X810379Y926527D01*
X810097Y926412D01*
X809865Y926273D01*
X809683Y926108D01*
X809551Y925917D01*
X809470Y925701D01*
X809439Y925460D01*
Y930540D01*
X809470Y930299D01*
D02*
G37*
G36*
X1108995Y932025D02*
X1109150Y931600D01*
X1109405Y931225D01*
X1109759Y930900D01*
X1110212Y930625D01*
X1110765Y930400D01*
X1111417Y930225D01*
X1112168Y930100D01*
X1113019Y930025D01*
X1113969Y930000D01*
Y925000D01*
X1113019Y924975D01*
X1112168Y924900D01*
X1111417Y924775D01*
X1110765Y924600D01*
X1110212Y924375D01*
X1109759Y924100D01*
X1109405Y923775D01*
X1109150Y923400D01*
X1108995Y922975D01*
X1108939Y922500D01*
Y932500D01*
X1108995Y932025D01*
D02*
G37*
G36*
X690120Y931875D02*
X690270Y931450D01*
X690520Y931075D01*
X690870Y930750D01*
X691320Y930475D01*
X691870Y930250D01*
X692520Y930075D01*
X693270Y929950D01*
X694120Y929875D01*
X695070Y929850D01*
Y924850D01*
X694120Y924825D01*
X693270Y924750D01*
X692520Y924625D01*
X691870Y924450D01*
X691320Y924225D01*
X690870Y923950D01*
X690520Y923625D01*
X690270Y923250D01*
X690120Y922825D01*
X690070Y922350D01*
Y932350D01*
X690120Y931875D01*
D02*
G37*
G36*
X868790Y922854D02*
X868802Y922518D01*
X868837Y922194D01*
X868896Y921880D01*
X868978Y921577D01*
X869083Y921285D01*
X869213Y921003D01*
X869365Y920733D01*
X869541Y920473D01*
X869741Y920224D01*
X869964Y919986D01*
X868794Y919992D01*
X868790Y919238D01*
X866250Y919297D01*
X866239Y920007D01*
X865064Y920013D01*
X865290Y920249D01*
X865491Y920495D01*
X865669Y920753D01*
X865823Y921022D01*
X865954Y921302D01*
X866060Y921593D01*
X866143Y921895D01*
X866202Y922209D01*
X866238Y922533D01*
X866250Y922869D01*
X868790Y922854D01*
D02*
G37*
G36*
X679961Y910535D02*
X679930Y910776D01*
X679849Y910992D01*
X679717Y911183D01*
X679535Y911348D01*
X679303Y911488D01*
X679021Y911602D01*
X678689Y911691D01*
X678306Y911754D01*
X677874Y911792D01*
X677391Y911805D01*
Y914345D01*
X677874Y914358D01*
X678306Y914396D01*
X678689Y914459D01*
X679021Y914548D01*
X679303Y914662D01*
X679535Y914802D01*
X679717Y914967D01*
X679849Y915158D01*
X679930Y915374D01*
X679961Y915615D01*
Y910535D01*
D02*
G37*
G36*
X652190Y915374D02*
X652271Y915158D01*
X652403Y914967D01*
X652584Y914802D01*
X652816Y914662D01*
X653099Y914548D01*
X653431Y914459D01*
X653813Y914396D01*
X654246Y914358D01*
X654729Y914345D01*
Y911805D01*
X654246Y911792D01*
X653813Y911754D01*
X653431Y911691D01*
X653099Y911602D01*
X652816Y911488D01*
X652584Y911348D01*
X652403Y911183D01*
X652271Y910992D01*
X652190Y910776D01*
X652159Y910535D01*
Y915615D01*
X652190Y915374D01*
D02*
G37*
G36*
X920249Y912210D02*
X920495Y912009D01*
X920753Y911831D01*
X921022Y911677D01*
X921302Y911546D01*
X921593Y911440D01*
X921895Y911357D01*
X922209Y911297D01*
X922533Y911262D01*
X922566Y911261D01*
X924479Y911290D01*
Y908629D01*
X924430Y908644D01*
X924333Y908658D01*
X924188Y908670D01*
X923124Y908703D01*
X922711Y908705D01*
X922518Y908698D01*
X922194Y908663D01*
X921880Y908604D01*
X921577Y908522D01*
X921284Y908416D01*
X921003Y908287D01*
X920732Y908135D01*
X920473Y907958D01*
X920224Y907759D01*
X919985Y907536D01*
X920014Y912436D01*
X920249Y912210D01*
D02*
G37*
G36*
X939244Y906279D02*
X939335Y906269D01*
X939666Y906252D01*
X941832Y906230D01*
Y903690D01*
X939201Y903629D01*
Y906291D01*
X939244Y906279D01*
D02*
G37*
G36*
X840879Y903629D02*
X840836Y903641D01*
X840744Y903651D01*
X840414Y903668D01*
X838248Y903690D01*
Y906230D01*
X840879Y906291D01*
Y903629D01*
D02*
G37*
G36*
X626187Y908697D02*
X625917Y908225D01*
X625679Y907715D01*
X625472Y907165D01*
X625297Y906577D01*
X625154Y905951D01*
X625043Y905285D01*
X624964Y904581D01*
X624900Y903058D01*
X619900Y903031D01*
X619882Y903771D01*
X619739Y905163D01*
X619614Y905816D01*
X619453Y906441D01*
X619256Y907036D01*
X619024Y907603D01*
X618755Y908141D01*
X618451Y908650D01*
X618112Y909131D01*
X626489D01*
X626187Y908697D01*
D02*
G37*
G36*
X962529Y902522D02*
X962289Y902744D01*
X962039Y902942D01*
X961778Y903117D01*
X961506Y903269D01*
X961224Y903398D01*
X960931Y903503D01*
X960628Y903585D01*
X960314Y903643D01*
X959990Y903678D01*
X959654Y903690D01*
X959623Y906230D01*
X959959Y906242D01*
X960284Y906278D01*
X960597Y906337D01*
X960899Y906421D01*
X961190Y906528D01*
X961469Y906659D01*
X961737Y906814D01*
X961993Y906992D01*
X962239Y907195D01*
X962473Y907421D01*
X962529Y902522D01*
D02*
G37*
G36*
X840879Y898629D02*
X840836Y898641D01*
X840744Y898651D01*
X840414Y898668D01*
X838248Y898690D01*
Y901230D01*
X840879Y901290D01*
Y898629D01*
D02*
G37*
G36*
X939244Y891279D02*
X939335Y891269D01*
X939666Y891252D01*
X941832Y891230D01*
Y888690D01*
X939201Y888629D01*
Y891290D01*
X939244Y891279D01*
D02*
G37*
G36*
X840879Y883629D02*
X840836Y883641D01*
X840744Y883651D01*
X840414Y883668D01*
X838248Y883690D01*
Y886230D01*
X840879Y886291D01*
Y883629D01*
D02*
G37*
G36*
X939280Y886254D02*
X939404Y886222D01*
X939572Y886193D01*
X939784Y886169D01*
X940688Y886117D01*
X941991Y886100D01*
X942162Y883560D01*
X939201Y883629D01*
Y886291D01*
X939280Y886254D01*
D02*
G37*
G36*
X860015Y877536D02*
X859776Y877759D01*
X859527Y877958D01*
X859268Y878135D01*
X858997Y878287D01*
X858716Y878416D01*
X858423Y878522D01*
X858120Y878604D01*
X857806Y878663D01*
X857568Y878689D01*
X855601Y878629D01*
Y881290D01*
X855638Y881283D01*
X855724Y881276D01*
X856566Y881256D01*
X857239Y881254D01*
X857467Y881262D01*
X857791Y881297D01*
X858105Y881357D01*
X858407Y881440D01*
X858698Y881546D01*
X858978Y881677D01*
X859247Y881831D01*
X859505Y882009D01*
X859751Y882210D01*
X859986Y882436D01*
X860015Y877536D01*
D02*
G37*
G36*
X939244Y881279D02*
X939335Y881269D01*
X939666Y881252D01*
X941832Y881230D01*
Y878690D01*
X939201Y878629D01*
Y881290D01*
X939244Y881279D01*
D02*
G37*
G36*
X913810Y855008D02*
X914964Y855014D01*
X914741Y854776D01*
X914541Y854527D01*
X914365Y854267D01*
X914213Y853997D01*
X914084Y853715D01*
X913978Y853423D01*
X913896Y853120D01*
X913837Y852806D01*
X913802Y852482D01*
X913790Y852146D01*
X911250Y852131D01*
X911238Y852467D01*
X911203Y852791D01*
X911143Y853105D01*
X911060Y853407D01*
X910954Y853698D01*
X910823Y853978D01*
X910669Y854247D01*
X910491Y854505D01*
X910290Y854751D01*
X910064Y854987D01*
X911247Y854993D01*
X911250Y855622D01*
X913790Y855682D01*
X913810Y855008D01*
D02*
G37*
G36*
X873859Y838256D02*
X873849Y838165D01*
X873832Y837834D01*
X873810Y835668D01*
X871270D01*
X871209Y838299D01*
X873871D01*
X873859Y838256D01*
D02*
G37*
G36*
X868859D02*
X868849Y838165D01*
X868832Y837834D01*
X868810Y835668D01*
X866270D01*
X866209Y838299D01*
X868870D01*
X868859Y838256D01*
D02*
G37*
G36*
X811979Y828233D02*
X811811Y828490D01*
X811624Y828719D01*
X811417Y828922D01*
X811191Y829097D01*
X810946Y829246D01*
X810680Y829367D01*
X810396Y829462D01*
X810092Y829529D01*
X809768Y829570D01*
X809425Y829583D01*
X810118Y832123D01*
X810445Y832132D01*
X810767Y832158D01*
X811084Y832201D01*
X811397Y832261D01*
X811705Y832339D01*
X812008Y832434D01*
X812307Y832546D01*
X812600Y832675D01*
X812889Y832822D01*
X813173Y832986D01*
X811979Y828233D01*
D02*
G37*
G36*
X984579Y810621D02*
X984349Y810373D01*
X984146Y810117D01*
X983970Y809853D01*
X983820Y809581D01*
X983698Y809300D01*
X983602Y809012D01*
X983534Y808714D01*
X983492Y808409D01*
X983477Y808096D01*
X983489Y807774D01*
X979796Y810994D01*
X980124Y811024D01*
X980442Y811077D01*
X980751Y811151D01*
X981050Y811247D01*
X981340Y811365D01*
X981621Y811505D01*
X981893Y811667D01*
X982155Y811851D01*
X982408Y812057D01*
X982651Y812285D01*
X984579Y810621D01*
D02*
G37*
G36*
X624395Y774518D02*
X624180Y774412D01*
X623990Y774262D01*
X623826Y774068D01*
X623686Y773829D01*
X623573Y773546D01*
X623484Y773219D01*
X623421Y772847D01*
X623383Y772431D01*
X623370Y771971D01*
X620830D01*
X620817Y772431D01*
X620779Y772847D01*
X620716Y773219D01*
X620627Y773546D01*
X620513Y773829D01*
X620374Y774068D01*
X620210Y774262D01*
X620020Y774412D01*
X619804Y774518D01*
X619564Y774580D01*
X624636D01*
X624395Y774518D01*
D02*
G37*
G36*
X880517Y761510D02*
X880486Y761752D01*
X880405Y761968D01*
X880273Y762158D01*
X880091Y762323D01*
X879859Y762463D01*
X879577Y762577D01*
X879245Y762666D01*
X878862Y762730D01*
X878430Y762768D01*
X877947Y762780D01*
Y765320D01*
X878430Y765333D01*
X878862Y765371D01*
X879245Y765435D01*
X879577Y765524D01*
X879859Y765638D01*
X880091Y765778D01*
X880273Y765943D01*
X880405Y766133D01*
X880486Y766349D01*
X880517Y766590D01*
Y761510D01*
D02*
G37*
G36*
X949514Y728249D02*
X949596Y728033D01*
X949727Y727843D01*
X949909Y727678D01*
X950141Y727538D01*
X950423Y727424D01*
X950756Y727335D01*
X950859Y727318D01*
X950963Y727340D01*
X951140Y727393D01*
X951299Y727456D01*
X951440Y727528D01*
X951562Y727609D01*
X951665Y727700D01*
Y727231D01*
X952054Y727220D01*
Y724680D01*
X951665Y724670D01*
Y724200D01*
X951562Y724292D01*
X951440Y724373D01*
X951299Y724445D01*
X951140Y724508D01*
X950963Y724560D01*
X950859Y724583D01*
X950756Y724566D01*
X950423Y724477D01*
X950141Y724363D01*
X949909Y724223D01*
X949727Y724058D01*
X949596Y723868D01*
X949514Y723652D01*
X949483Y723410D01*
Y728490D01*
X949514Y728249D01*
D02*
G37*
G36*
X900238D02*
X900320Y728033D01*
X900451Y727843D01*
X900633Y727678D01*
X900865Y727538D01*
X901147Y727424D01*
X901480Y727335D01*
X901862Y727271D01*
X902295Y727233D01*
X902778Y727220D01*
Y724680D01*
X902295Y724668D01*
X901862Y724630D01*
X901480Y724566D01*
X901147Y724477D01*
X900865Y724363D01*
X900633Y724223D01*
X900451Y724058D01*
X900320Y723868D01*
X900238Y723652D01*
X900207Y723410D01*
Y728490D01*
X900238Y728249D01*
D02*
G37*
G36*
X651989Y718374D02*
X652071Y718158D01*
X652202Y717967D01*
X652384Y717802D01*
X652616Y717663D01*
X652898Y717548D01*
X653231Y717459D01*
X653613Y717396D01*
X654046Y717358D01*
X654529Y717345D01*
Y714805D01*
X654071Y714792D01*
X653656Y714754D01*
X653286Y714691D01*
X652960Y714603D01*
X652679Y714489D01*
X652441Y714349D01*
X652247Y714185D01*
X652097Y713995D01*
X651992Y713780D01*
X651930Y713539D01*
X651958Y718615D01*
X651989Y718374D01*
D02*
G37*
G36*
X679961Y713535D02*
X679930Y713776D01*
X679848Y713992D01*
X679717Y714183D01*
X679535Y714348D01*
X679303Y714488D01*
X679021Y714602D01*
X678689Y714691D01*
X678306Y714754D01*
X677873Y714792D01*
X677391Y714805D01*
Y717345D01*
X677873Y717358D01*
X678306Y717396D01*
X678689Y717459D01*
X679021Y717548D01*
X679303Y717663D01*
X679535Y717802D01*
X679717Y717967D01*
X679848Y718158D01*
X679930Y718374D01*
X679961Y718615D01*
Y713535D01*
D02*
G37*
G36*
X690095Y717449D02*
X690171Y717233D01*
X690298Y717042D01*
X690476Y716877D01*
X690704Y716738D01*
X690984Y716623D01*
X691314Y716535D01*
X691695Y716471D01*
X692127Y716433D01*
X692609Y716420D01*
Y713880D01*
X692127Y713867D01*
X691695Y713829D01*
X691314Y713766D01*
X690984Y713677D01*
X690704Y713563D01*
X690476Y713423D01*
X690298Y713258D01*
X690171Y713067D01*
X690095Y712851D01*
X690070Y712610D01*
Y717690D01*
X690095Y717449D01*
D02*
G37*
G36*
X625718Y711966D02*
X625525Y711710D01*
X625355Y711400D01*
X625208Y711035D01*
X625083Y710615D01*
X624981Y710142D01*
X624902Y709613D01*
X624811Y708392D01*
X624800Y707700D01*
X619800D01*
X619787Y708335D01*
X619684Y709471D01*
X619593Y709971D01*
X619477Y710425D01*
X619335Y710835D01*
X619167Y711199D01*
X618973Y711518D01*
X618753Y711792D01*
X618507Y712021D01*
X625933Y712167D01*
X625718Y711966D01*
D02*
G37*
G36*
X699726Y704764D02*
X699525Y704516D01*
X699348Y704257D01*
X699195Y703987D01*
X699065Y703707D01*
X698959Y703415D01*
X698876Y703112D01*
X698817Y702799D01*
X698782Y702474D01*
X698770Y702139D01*
X696230D01*
X696218Y702474D01*
X696183Y702799D01*
X696124Y703112D01*
X696041Y703415D01*
X695935Y703707D01*
X695805Y703987D01*
X695652Y704257D01*
X695475Y704516D01*
X695274Y704764D01*
X695050Y705001D01*
X699950D01*
X699726Y704764D01*
D02*
G37*
G36*
X1207299Y691780D02*
X1207083Y691698D01*
X1206892Y691567D01*
X1206727Y691385D01*
X1206588Y691153D01*
X1206473Y690871D01*
X1206384Y690539D01*
X1206321Y690156D01*
X1206297Y689886D01*
X1206317Y689701D01*
X1206376Y689388D01*
X1206459Y689085D01*
X1206565Y688793D01*
X1206695Y688513D01*
X1206848Y688243D01*
X1207025Y687984D01*
X1207226Y687736D01*
X1207450Y687499D01*
X1202550D01*
X1202774Y687736D01*
X1202975Y687984D01*
X1203152Y688243D01*
X1203305Y688513D01*
X1203435Y688793D01*
X1203541Y689085D01*
X1203624Y689388D01*
X1203683Y689701D01*
X1203703Y689886D01*
X1203679Y690156D01*
X1203616Y690539D01*
X1203527Y690871D01*
X1203412Y691153D01*
X1203273Y691385D01*
X1203108Y691567D01*
X1202917Y691698D01*
X1202701Y691780D01*
X1202460Y691811D01*
X1207540D01*
X1207299Y691780D01*
D02*
G37*
G36*
X790033Y681277D02*
X790071Y680844D01*
X790134Y680461D01*
X790223Y680129D01*
X790338Y679847D01*
X790477Y679615D01*
X790642Y679433D01*
X790833Y679302D01*
X791049Y679220D01*
X791290Y679189D01*
X786210D01*
X786451Y679220D01*
X786667Y679302D01*
X786858Y679433D01*
X787023Y679615D01*
X787162Y679847D01*
X787277Y680129D01*
X787366Y680461D01*
X787429Y680844D01*
X787467Y681277D01*
X787480Y681759D01*
X790020D01*
X790033Y681277D01*
D02*
G37*
G36*
X765561Y669960D02*
X765530Y670201D01*
X765448Y670417D01*
X765317Y670608D01*
X765135Y670773D01*
X764903Y670912D01*
X764621Y671027D01*
X764289Y671116D01*
X763906Y671179D01*
X763473Y671217D01*
X762990Y671230D01*
Y673770D01*
X763473Y673783D01*
X763906Y673821D01*
X764289Y673884D01*
X764621Y673973D01*
X764903Y674088D01*
X765135Y674227D01*
X765317Y674392D01*
X765448Y674583D01*
X765530Y674799D01*
X765561Y675040D01*
Y669960D01*
D02*
G37*
G36*
X792299Y665780D02*
X792083Y665698D01*
X791892Y665567D01*
X791727Y665385D01*
X791588Y665153D01*
X791473Y664871D01*
X791384Y664539D01*
X791321Y664156D01*
X791283Y663723D01*
X791270Y663241D01*
X788730D01*
X788717Y663723D01*
X788679Y664156D01*
X788616Y664539D01*
X788527Y664871D01*
X788412Y665153D01*
X788273Y665385D01*
X788108Y665567D01*
X787917Y665698D01*
X787701Y665780D01*
X787460Y665811D01*
X792540D01*
X792299Y665780D01*
D02*
G37*
G36*
X791310Y656337D02*
X791429Y655772D01*
X791628Y655183D01*
X791906Y654568D01*
X792263Y653928D01*
X792700Y653262D01*
X793217Y652572D01*
X794488Y651115D01*
X795243Y650349D01*
X791330D01*
X791515Y647461D01*
X791589Y647142D01*
X791674Y646910D01*
X791769Y646767D01*
X788231D01*
X788326Y646910D01*
X788411Y647142D01*
X788486Y647461D01*
X788550Y647868D01*
X788650Y648946D01*
X788696Y650349D01*
X784757D01*
X785512Y651115D01*
X786783Y652572D01*
X787300Y653262D01*
X787737Y653928D01*
X788094Y654568D01*
X788372Y655183D01*
X788571Y655772D01*
X788690Y656337D01*
X788730Y656876D01*
X791270D01*
X791310Y656337D01*
D02*
G37*
G36*
X995236Y649726D02*
X995484Y649525D01*
X995743Y649348D01*
X996013Y649195D01*
X996293Y649065D01*
X996585Y648959D01*
X996888Y648876D01*
X997201Y648817D01*
X997526Y648782D01*
X997861Y648770D01*
X997861Y646230D01*
X997526Y646218D01*
X997201Y646183D01*
X996888Y646124D01*
X996585Y646041D01*
X996293Y645935D01*
X996013Y645805D01*
X995743Y645652D01*
X995484Y645475D01*
X995236Y645274D01*
X995000Y645050D01*
X994999Y649950D01*
X995236Y649726D01*
D02*
G37*
G36*
X1001061Y644960D02*
X1001030Y645201D01*
X1000948Y645417D01*
X1000817Y645608D01*
X1000635Y645773D01*
X1000403Y645913D01*
X1000121Y646027D01*
X999789Y646116D01*
X999406Y646179D01*
X998973Y646217D01*
X998490Y646230D01*
Y648770D01*
X998973Y648783D01*
X999406Y648821D01*
X999789Y648884D01*
X1000121Y648973D01*
X1000403Y649088D01*
X1000635Y649227D01*
X1000817Y649392D01*
X1000948Y649583D01*
X1001030Y649799D01*
X1001061Y650040D01*
Y644960D01*
D02*
G37*
G36*
X1028298Y592030D02*
X1028083Y591948D01*
X1027892Y591817D01*
X1027727Y591635D01*
X1027587Y591403D01*
X1027473Y591121D01*
X1027384Y590789D01*
X1027321Y590406D01*
X1027282Y589973D01*
X1027270Y589490D01*
X1024730D01*
X1024717Y589973D01*
X1024679Y590406D01*
X1024615Y590789D01*
X1024527Y591121D01*
X1024412Y591403D01*
X1024273Y591635D01*
X1024108Y591817D01*
X1023917Y591948D01*
X1023701Y592030D01*
X1023460Y592061D01*
X1028540D01*
X1028298Y592030D01*
D02*
G37*
G36*
X1027282Y587526D02*
X1027317Y587201D01*
X1027376Y586888D01*
X1027459Y586585D01*
X1027565Y586293D01*
X1027695Y586013D01*
X1027848Y585743D01*
X1028025Y585484D01*
X1028226Y585236D01*
X1028450Y585000D01*
X1023550D01*
X1023774Y585236D01*
X1023975Y585484D01*
X1024152Y585743D01*
X1024305Y586013D01*
X1024435Y586293D01*
X1024541Y586585D01*
X1024624Y586888D01*
X1024683Y587201D01*
X1024718Y587526D01*
X1024730Y587862D01*
X1027270D01*
X1027282Y587526D01*
D02*
G37*
%LPC*%
G36*
X1182500Y1131599D02*
X1180931Y1131287D01*
X1179602Y1130398D01*
X1179352Y1130148D01*
X1178463Y1128819D01*
X1178151Y1127250D01*
X1178463Y1125682D01*
X1179352Y1124352D01*
X1180681Y1123463D01*
X1182250Y1123151D01*
X1183819Y1123463D01*
X1185148Y1124352D01*
X1185398Y1124602D01*
X1186287Y1125931D01*
X1186599Y1127500D01*
X1186287Y1129069D01*
X1185398Y1130398D01*
X1184069Y1131287D01*
X1182500Y1131599D01*
D02*
G37*
%LPD*%
D16*
X1178000Y756964D02*
Y790290D01*
Y756964D02*
X1179464Y755500D01*
X1200000D01*
D18*
X952000Y934000D02*
D03*
Y918000D02*
D03*
X828000Y858000D02*
D03*
Y874000D02*
D03*
X703000Y1071000D02*
D03*
Y1087000D02*
D03*
X1250000Y1172500D02*
D03*
Y1156500D02*
D03*
D19*
X862540Y929260D02*
D03*
X867540D02*
D03*
X872540D02*
D03*
X877540D02*
D03*
X882540D02*
D03*
X887540D02*
D03*
X892540D02*
D03*
X897540D02*
D03*
X902540D02*
D03*
X907540D02*
D03*
X912540D02*
D03*
X917540D02*
D03*
Y845660D02*
D03*
X912540D02*
D03*
X907540D02*
D03*
X902540D02*
D03*
X897540D02*
D03*
X892540D02*
D03*
X887540D02*
D03*
X882540D02*
D03*
X877540D02*
D03*
X872540D02*
D03*
X867540D02*
D03*
X862540D02*
D03*
D20*
X931840Y914960D02*
D03*
Y909960D02*
D03*
Y904960D02*
D03*
Y899960D02*
D03*
Y894960D02*
D03*
Y889960D02*
D03*
Y884960D02*
D03*
Y879960D02*
D03*
Y874960D02*
D03*
Y869960D02*
D03*
Y864960D02*
D03*
Y859960D02*
D03*
X848240D02*
D03*
Y864960D02*
D03*
Y869960D02*
D03*
Y874960D02*
D03*
Y879960D02*
D03*
Y884960D02*
D03*
Y889960D02*
D03*
Y894960D02*
D03*
Y899960D02*
D03*
Y904960D02*
D03*
Y909960D02*
D03*
Y914960D02*
D03*
D21*
X896000Y823000D02*
D03*
X912000D02*
D03*
X878000Y951000D02*
D03*
X862000D02*
D03*
X985000Y747000D02*
D03*
X1001000D02*
D03*
X1102500Y927500D02*
D03*
X1086500D02*
D03*
X787000Y950000D02*
D03*
X803000D02*
D03*
X784501Y880000D02*
D03*
X800500D02*
D03*
D22*
X1045000Y682500D02*
D03*
Y697200D02*
D03*
X980000D02*
D03*
Y682500D02*
D03*
X685000Y729850D02*
D03*
Y715150D02*
D03*
X685000Y927350D02*
D03*
Y912650D02*
D03*
D23*
X1452500Y1150000D02*
D03*
X1435000D02*
D03*
X1353750Y1150000D02*
D03*
X1336250D02*
D03*
X1402500Y1150000D02*
D03*
X1385000D02*
D03*
X913750Y967500D02*
D03*
X896250D02*
D03*
X771250Y672500D02*
D03*
X788750D02*
D03*
D24*
X945000Y685000D02*
D03*
X930300D02*
D03*
X899850Y687501D02*
D03*
X885150D02*
D03*
D25*
X1004000Y595000D02*
D03*
X1026000D02*
D03*
X1004000Y647500D02*
D03*
X1026000D02*
D03*
X1023501Y620000D02*
D03*
X1001500D02*
D03*
D26*
X1444000Y1099400D02*
D03*
X1431000D02*
D03*
X1437500Y1080400D02*
D03*
X1392500Y1080500D02*
D03*
X1386000Y1099500D02*
D03*
X1399000D02*
D03*
X1352500Y1080500D02*
D03*
X1346000Y1099500D02*
D03*
X1359000D02*
D03*
X1206500Y774500D02*
D03*
X1193500D02*
D03*
X1200000Y755500D02*
D03*
D27*
X1087500Y976550D02*
D03*
D28*
X1064600Y1043449D02*
D03*
X1087500D02*
D03*
X1110400D02*
D03*
D29*
X857000Y1075000D02*
D03*
X874000D02*
D03*
X891000D02*
D03*
X908000D02*
D03*
X925000D02*
D03*
D30*
X1399500Y1184500D02*
D03*
Y1193500D02*
D03*
X1383500D02*
D03*
Y1184500D02*
D03*
D31*
X804250Y902000D02*
D03*
X785750D02*
D03*
X804250Y928000D02*
D03*
X785750D02*
D03*
D32*
X684584Y1172500D02*
D03*
X610416D02*
D03*
D33*
X1392500Y1045000D02*
D03*
Y1027500D02*
D03*
X1435000Y965000D02*
D03*
Y982500D02*
D03*
Y1045000D02*
D03*
Y1027500D02*
D03*
X1355000Y1043750D02*
D03*
Y1026250D02*
D03*
X1392500Y965000D02*
D03*
Y982500D02*
D03*
X1352500Y963750D02*
D03*
Y981250D02*
D03*
X685000Y771250D02*
D03*
Y788750D02*
D03*
X1170000Y715000D02*
D03*
Y697500D02*
D03*
X1205000Y697500D02*
D03*
Y715000D02*
D03*
X1012500Y697500D02*
D03*
Y680000D02*
D03*
X687500Y968750D02*
D03*
Y986250D02*
D03*
D34*
X975000Y1218250D02*
D03*
Y1186750D02*
D03*
D35*
X1024000Y1157500D02*
D03*
X1121000D02*
D03*
D36*
X767500Y1102000D02*
D03*
Y1173000D02*
D03*
D37*
X618350Y1085000D02*
D03*
X661650D02*
D03*
D38*
X1211500Y1127500D02*
D03*
X1182500D02*
D03*
X1211500Y1165000D02*
D03*
X1182500D02*
D03*
X1211500Y1200000D02*
D03*
X1182500D02*
D03*
D39*
X647500Y780000D02*
D03*
X622100D02*
D03*
Y717000D02*
D03*
X647500D02*
D03*
X647700Y913500D02*
D03*
X622300D02*
D03*
Y976500D02*
D03*
X647700D02*
D03*
D40*
X1060000Y929590D02*
D03*
Y915410D02*
D03*
D41*
X1200000Y810700D02*
D03*
D42*
Y839300D02*
D03*
D43*
X939638Y764050D02*
D03*
Y751350D02*
D03*
Y738650D02*
D03*
Y725950D02*
D03*
X890362D02*
D03*
Y738650D02*
D03*
Y751350D02*
D03*
Y764050D02*
D03*
D86*
X891000Y1182500D02*
D03*
D87*
X1250000Y1156500D02*
X1250500Y1156000D01*
Y1133358D02*
Y1156000D01*
X1244642Y1127500D02*
X1250500Y1133358D01*
X1211500Y1127500D02*
X1244642D01*
X1213000Y1161000D02*
Y1162929D01*
X1248000Y1155000D02*
X1249500Y1156500D01*
X1250000D01*
X1248000Y1154500D02*
Y1155000D01*
X1211500Y1165000D02*
Y1200000D01*
X1211500Y1127500D02*
Y1161429D01*
X1211500Y1127500D02*
X1211500Y1127500D01*
X1155000Y1093858D02*
Y1137000D01*
Y1093858D02*
X1160858Y1088000D01*
X1205642D02*
X1211500Y1093858D01*
Y1127500D01*
X1160858Y1088000D02*
X1205642D01*
X1144642Y1147358D02*
X1155000Y1137000D01*
X1130500Y1147358D02*
X1144642D01*
X1121000Y1156858D02*
X1130500Y1147358D01*
X1121000Y1156858D02*
Y1157500D01*
X762500Y1108000D02*
X767500Y1103000D01*
Y1102000D02*
Y1103000D01*
X703000Y1087000D02*
Y1102142D01*
X708858Y1108000D01*
X762500D01*
X663650Y1087000D02*
X703000D01*
X661650Y1085000D02*
X663650Y1087000D01*
X908000Y1032000D02*
X998950Y941050D01*
Y765000D02*
Y941050D01*
X899650Y687401D02*
X899750Y687501D01*
X899650Y676858D02*
Y687401D01*
X847858Y671000D02*
X893792D01*
X842000Y574858D02*
Y665142D01*
X899750Y687501D02*
X899850D01*
X893792Y671000D02*
X899650Y676858D01*
X842000Y665142D02*
X847858Y671000D01*
Y569000D02*
X936642D01*
X842000Y574858D02*
X847858Y569000D01*
X942500Y574858D02*
Y620000D01*
X936642Y569000D02*
X942500Y574858D01*
X894500Y618000D02*
X913512D01*
X915000Y619488D02*
Y683512D01*
X916488Y685000D02*
X930300D01*
X532500Y804142D02*
X538358Y810000D01*
X532500Y777500D02*
Y804142D01*
X538358Y810000D02*
X641642D01*
X647500Y804142D01*
Y780000D02*
Y804142D01*
X540858Y1010000D02*
X641842D01*
X535000Y985001D02*
Y1004142D01*
X540858Y1010000D01*
X641842D02*
X647700Y1004142D01*
Y976500D02*
Y1004142D01*
X908000Y1040000D02*
Y1061050D01*
Y1032000D02*
Y1040000D01*
X1228647Y812500D02*
X1230000D01*
X1200000Y810700D02*
X1226847D01*
X1228647Y812500D01*
X770071Y1048358D02*
Y1099429D01*
X856950Y1048358D02*
Y1074950D01*
X851092Y1042500D02*
X856950Y1048358D01*
X775929Y1042500D02*
X851092D01*
X770071Y1048358D02*
X775929Y1042500D01*
X943769Y1120000D02*
X975000Y1151231D01*
Y1186750D01*
X980000Y1167500D02*
X1014500D01*
X1024000Y1158000D01*
Y1157500D02*
Y1158000D01*
X969142Y1237500D02*
X975000Y1231642D01*
X930000Y1212500D02*
Y1231642D01*
X935858Y1237500D02*
X969142D01*
X975000Y1218250D02*
Y1231642D01*
X930000D02*
X935858Y1237500D01*
X856950Y1074950D02*
X857000Y1075000D01*
X1121000Y1145000D02*
Y1157500D01*
X907500Y1212500D02*
X930000D01*
X887500D02*
X907500D01*
X892500Y1120000D02*
X943769D01*
X1121000Y1157500D02*
X1128142Y1164642D01*
X874000Y1075000D02*
X874050Y1075050D01*
Y1101550D01*
X892500Y1120000D01*
D88*
X975050Y764050D02*
X1035950D01*
X1250000Y1172500D02*
X1265000D01*
X1182250Y1127250D02*
X1182500Y1127500D01*
X1064250Y1064250D02*
X1121000Y1121000D01*
Y1145000D01*
X1064250Y1044999D02*
Y1064250D01*
X688000Y1071000D02*
X688000Y1071000D01*
X703000D01*
X1001000Y731000D02*
Y732000D01*
X1001000Y731000D02*
X1001000Y731000D01*
X1001000Y731000D02*
Y747000D01*
X973929D02*
X985000D01*
X971000Y749929D02*
X973929Y747000D01*
X971000Y749929D02*
Y760000D01*
X975050Y764050D01*
X939638D02*
X975050D01*
X1035950D02*
X1062500Y737500D01*
X810617Y881617D02*
X811000Y882000D01*
X802118Y881617D02*
X810617D01*
X800500Y880000D02*
X802118Y881617D01*
X684000Y771250D02*
X685000D01*
X680750Y761291D02*
Y768000D01*
X680000Y760000D02*
Y760541D01*
Y760000D02*
X697071D01*
X680750Y768000D02*
X684000Y771250D01*
X680000Y760541D02*
X680750Y761291D01*
X942500Y620000D02*
X973988D01*
X677000Y843000D02*
X700000Y820000D01*
X476500Y687500D02*
Y840071D01*
X479429Y843000D01*
X677000D01*
X664000Y1036000D02*
X707500Y992500D01*
X483929Y1036000D02*
X664000D01*
X481000Y896929D02*
Y1033071D01*
X483929Y1036000D01*
X529572Y683000D02*
X532500Y685929D01*
Y727500D01*
X481000Y683000D02*
X529572D01*
X476500Y687500D02*
X481000Y683000D01*
X483929Y894000D02*
X532072D01*
X535000Y896929D02*
Y935001D01*
X481000Y896929D02*
X483929Y894000D01*
X532072D02*
X535000Y896929D01*
X685000Y729850D02*
X722350D01*
X1172710Y790290D02*
X1178000D01*
X1167210Y795790D02*
Y829710D01*
Y795790D02*
X1172710Y790290D01*
X1178000D02*
X1292210D01*
X1365197Y717303D01*
X1064600Y1042150D02*
Y1043449D01*
X908000Y1040000D02*
X1062450D01*
X1064600Y1042150D01*
X707500Y962500D02*
Y992500D01*
X702500Y957500D02*
X707500Y962500D01*
X687500Y968750D02*
X688500D01*
X691750Y965500D01*
Y958792D02*
Y965500D01*
Y958792D02*
X692500Y958041D01*
Y957500D02*
Y958041D01*
X685383Y966633D02*
X687500Y968750D01*
X685383Y957883D02*
Y966633D01*
X685000Y957500D02*
X685383Y957883D01*
X692500Y957500D02*
X702500D01*
X685000D02*
X685383Y957117D01*
X692883D01*
X697071Y760000D02*
X700000Y762929D01*
Y820000D01*
X686000Y771250D02*
X689250Y768000D01*
Y761291D02*
Y768000D01*
Y761291D02*
X690000Y760541D01*
X737500Y855000D02*
X747500D01*
X1167210Y829710D02*
X1176800Y839300D01*
X1200000D01*
X973988Y620000D02*
X1001500D01*
X622400Y902600D02*
Y913400D01*
X622300Y913500D02*
X622400Y913400D01*
Y902600D02*
X622500Y902500D01*
X1045000Y682500D02*
X1059571D01*
X1062500Y685429D01*
Y737500D01*
X787250Y964750D02*
X787500Y965000D01*
X787250Y950250D02*
Y964750D01*
X787000Y950000D02*
X787250Y950250D01*
X737500Y745000D02*
Y855000D01*
X787750Y645000D02*
X790000D01*
X722350Y729850D02*
X737500Y745000D01*
X1375197Y717303D02*
X1377500Y715000D01*
X1365197Y717303D02*
X1375197D01*
X1337883Y980383D02*
X1351633D01*
X1337500Y980000D02*
X1337883Y980383D01*
X685000Y927350D02*
X737500D01*
X1050000Y930000D02*
X1059590D01*
X1060000Y929590D01*
X1102500Y927500D02*
X1102500Y927500D01*
X1115000D01*
X1392500Y982500D02*
Y995000D01*
X1351633Y980383D02*
X1352500Y981250D01*
X1450000Y982500D02*
X1450000Y982500D01*
X1435000Y982500D02*
X1450000D01*
X622300Y707700D02*
X622500Y707500D01*
X622300Y707700D02*
Y716800D01*
X622100Y717000D02*
X622300Y716800D01*
X1098500Y923500D02*
X1102500Y927500D01*
X1110400Y1043449D02*
X1112500Y1045550D01*
X622100Y717000D02*
Y718000D01*
X1435000Y982500D02*
X1435000Y982500D01*
X1391250Y981250D02*
X1392500Y982500D01*
D89*
X671311Y1124000D02*
X684039Y1136728D01*
X630066Y1124000D02*
X671311D01*
X618350Y1112284D02*
X630066Y1124000D01*
X618350Y1085000D02*
Y1112284D01*
X684039Y1136728D02*
Y1171955D01*
X684584Y1172500D01*
X1230000Y830000D02*
Y844284D01*
X1377500Y799500D02*
Y837000D01*
Y799500D02*
X1447000Y730000D01*
X1467500D01*
Y780000D02*
X1498284D01*
X1510000Y768285D01*
Y681716D02*
Y768285D01*
X1467500Y830000D02*
Y872784D01*
X1455784Y884500D02*
X1467500Y872784D01*
X1269216Y884500D02*
X1455784D01*
X1257500Y872784D02*
X1269216Y884500D01*
X1257500Y837000D02*
Y872784D01*
X537500Y1172500D02*
X610416D01*
X1257500Y715000D02*
Y770000D01*
X1230000Y812500D02*
Y830000D01*
X1025000Y867716D02*
X1036716Y856000D01*
X1188408D01*
X1189228Y856820D01*
X1025000Y867716D02*
Y1000784D01*
X1189228Y856820D02*
X1217464D01*
X1230000Y844284D01*
X707500Y1020000D02*
X872500D01*
X662450Y1085000D02*
X663050Y1084400D01*
Y1064450D02*
Y1084400D01*
Y1064450D02*
X707500Y1020000D01*
X960000D02*
X975000D01*
X1005784D01*
X872500D02*
X890000D01*
X1005784D02*
X1025000Y1000784D01*
X1342500Y670000D02*
X1498284D01*
X1510000Y681716D01*
X1317500Y695000D02*
X1342500Y670000D01*
D90*
X1017438Y628438D02*
X1026000Y637000D01*
X1001500Y620000D02*
Y626950D01*
X1002988Y628438D02*
X1017438D01*
X1001500Y626950D02*
X1002988Y628438D01*
X1026000Y637000D02*
Y647500D01*
X961650Y751350D02*
X970674Y742326D01*
X939638Y751350D02*
X961650D01*
X970674Y723306D02*
Y742326D01*
X939638Y738650D02*
X959613D01*
X962101Y726768D02*
Y736162D01*
X959613Y738650D02*
X962101Y736162D01*
X945338Y697970D02*
X970674Y723306D01*
X815000Y858000D02*
X828000D01*
X760939Y815939D02*
X817290Y872290D01*
X817235Y890957D02*
X818778Y892500D01*
X817235Y884661D02*
X817290Y884605D01*
Y872290D02*
Y884605D01*
X818778Y892500D02*
X830620D01*
X817235Y884661D02*
Y890957D01*
X895400Y797853D02*
X901147D01*
X895397Y797857D02*
X895400Y797853D01*
X892857Y797857D02*
X895397D01*
X901147Y797853D02*
X902000Y797000D01*
X930000Y805000D02*
X945000D01*
X962500Y822500D01*
X938144Y934000D02*
X952000D01*
X918353Y914209D02*
X938144Y934000D01*
X918353Y910853D02*
Y914209D01*
X917500Y910000D02*
X918353Y910853D01*
X945139Y914960D02*
X946000Y915000D01*
X931840Y914960D02*
X945139D01*
X946000Y915000D02*
X965000D01*
X913750Y967500D02*
X923512D01*
X925000Y966012D01*
Y956488D02*
Y966012D01*
X882670Y929390D02*
Y937670D01*
X900000Y955000D01*
X882540Y929260D02*
X882670Y929390D01*
X900000Y955000D02*
X923512D01*
X906000Y941000D02*
X906052D01*
X902000Y945000D02*
X906000Y941000D01*
X906052D02*
X907540Y939512D01*
X912410Y845530D02*
X912540Y845660D01*
X912410Y834898D02*
Y845530D01*
X911512Y834000D02*
X912410Y834898D01*
X897488Y834000D02*
X911512D01*
X896000Y832512D02*
X897488Y834000D01*
X896000Y823000D02*
Y832512D01*
X924000Y829510D02*
X925779Y831290D01*
X924000Y825488D02*
Y829510D01*
X922512Y824000D02*
X924000Y825488D01*
X913000Y824000D02*
X922512D01*
X912000Y823000D02*
X913000Y824000D01*
X919028Y831290D02*
X925779D01*
X917540Y832778D02*
X919028Y831290D01*
X917540Y832778D02*
Y845660D01*
X882670Y820330D02*
X883000Y820000D01*
X882670Y820330D02*
Y845530D01*
X882540Y845660D02*
X882670Y845530D01*
X828988Y874960D02*
X848240D01*
X827500Y876448D02*
X828988Y874960D01*
X827500Y876448D02*
Y885000D01*
X892500Y620000D02*
X894500Y618000D01*
X913512D02*
X915000Y619488D01*
Y683512D02*
X916488Y685000D01*
X930300Y673988D02*
Y685000D01*
Y673988D02*
X931788Y672500D01*
X958512D01*
X893000Y809000D02*
X923000D01*
X931000Y817000D01*
Y823080D01*
X863325Y744675D02*
X869000D01*
X858000Y774000D02*
X893000Y809000D01*
X858000Y750000D02*
X863325Y744675D01*
X858000Y750000D02*
Y774000D01*
X869000Y744675D02*
Y749863D01*
Y739488D02*
Y744675D01*
Y739488D02*
X870488Y738000D01*
X889712D01*
X870488Y751350D02*
X890362D01*
X869000Y749863D02*
X870488Y751350D01*
X933015Y831319D02*
X936834Y827500D01*
X925809Y831319D02*
X933015D01*
X936834Y827500D02*
X937500D01*
X925779Y831290D02*
X925809Y831319D01*
X875000Y780000D02*
X892857Y797857D01*
X875000Y765538D02*
Y780000D01*
X944385Y827705D02*
X944590Y827910D01*
X937705Y827705D02*
X944385D01*
X937500Y827500D02*
X937705Y827705D01*
X931840Y899960D02*
X947960D01*
X948000Y900000D01*
X964960Y904960D02*
X965000Y905000D01*
X931840Y904960D02*
X964960D01*
X889712Y738000D02*
X890362Y738650D01*
X1093000Y1072000D02*
X1301000D01*
X1306000Y1077000D02*
Y1178000D01*
X1310000Y1182000D01*
X1301000Y1072000D02*
X1306000Y1077000D01*
X1310000Y1182000D02*
X1360000D01*
X1399500Y1177500D02*
Y1184500D01*
X1087500Y1066500D02*
X1093000Y1072000D01*
X1087500Y1043449D02*
Y1066500D01*
X1088988Y1032210D02*
X1119790D01*
X1087500Y1033698D02*
Y1043449D01*
Y1033698D02*
X1088988Y1032210D01*
X1119790D02*
X1127500Y1024500D01*
Y954988D02*
Y1024500D01*
X1087988Y953500D02*
X1126012D01*
X1127500Y954988D01*
X1086500Y914588D02*
Y927500D01*
Y952012D01*
X1087988Y953500D01*
X1062311Y913100D02*
X1085012D01*
X1086500Y914588D01*
X1060000Y915410D02*
X1062311Y913100D01*
X1059590Y915000D02*
X1060000Y915410D01*
X1047500Y915000D02*
X1059590D01*
X1369481Y1166000D02*
X1383159Y1179678D01*
Y1184159D01*
X1383500Y1184500D01*
X1399500Y1193500D02*
X1428500D01*
X1435000Y1187000D01*
Y1150000D02*
Y1187000D01*
X1451012Y1118000D02*
X1452500Y1119488D01*
X1420488Y1118000D02*
X1451012D01*
X1452500Y1119488D02*
Y1150000D01*
X1370000Y1174000D02*
Y1189000D01*
X1374500Y1193500D01*
X1383500D01*
X1370000Y1150000D02*
X1385000D01*
X1339000Y1166000D02*
X1369481D01*
X1336250Y1163250D02*
X1339000Y1166000D01*
X1336250Y1150000D02*
Y1163250D01*
X1219500Y774500D02*
X1226000Y768000D01*
Y716488D02*
Y768000D01*
X1206500Y774500D02*
X1219500D01*
X1205000Y715000D02*
X1224512D01*
X1226000Y716488D01*
X1205000Y715000D02*
X1205000Y715000D01*
X1170000Y715000D02*
X1205000D01*
X1186000Y775000D02*
X1193000D01*
X1193500Y774500D01*
X1331000Y1081718D02*
Y1121512D01*
Y1081718D02*
X1332488Y1080230D01*
X1352500D01*
X1332488Y1123000D02*
X1351000D01*
X1331000Y1121512D02*
X1332488Y1123000D01*
X1351000D02*
X1353750Y1125750D01*
Y1150000D01*
X1452512Y1067500D02*
X1454000Y1068988D01*
X1450600Y1099400D02*
X1454000Y1096000D01*
X1444000Y1099400D02*
X1450600D01*
X1454000Y1068988D02*
Y1096000D01*
X1431488Y1067500D02*
X1452512D01*
X1366512D02*
X1368000Y1068988D01*
X1351488Y1067500D02*
X1366512D01*
X1359000Y1099500D02*
X1365500D01*
X1368000Y1097000D01*
Y1068988D02*
Y1097000D01*
X1355000Y1043750D02*
X1375000D01*
X1354480D02*
X1355000D01*
X1407512Y1067500D02*
X1409000Y1068988D01*
X1399000Y1099500D02*
X1405500D01*
X1409000Y1096000D01*
X1391488Y1067500D02*
X1407512D01*
X1409000Y1068988D02*
Y1096000D01*
X1418110Y1081718D02*
Y1115622D01*
X1419598Y1080230D02*
X1437500D01*
X1418110Y1081718D02*
X1419598Y1080230D01*
X1372710Y1080988D02*
Y1122222D01*
X1374198Y1079500D02*
X1391500D01*
X1372710Y1080988D02*
X1374198Y1079500D01*
X1391500D02*
X1392500Y1080500D01*
X1372710Y1122222D02*
X1374488Y1124000D01*
X1399000D01*
X1402500Y1127500D01*
Y1150000D01*
X1418110Y1115622D02*
X1420488Y1118000D01*
X1423400Y1099400D02*
X1431000D01*
X1378000Y1100000D02*
X1385500D01*
X1386000Y1099500D01*
X1338500D02*
X1346000D01*
X1390000Y1066012D02*
X1391488Y1067500D01*
X1390000Y1047500D02*
Y1066012D01*
X1352500Y1080500D02*
X1352500Y1080500D01*
X788988Y915000D02*
X815000D01*
X787500Y903750D02*
Y913512D01*
X815000Y915000D02*
X830040Y899960D01*
X787500Y913512D02*
X788988Y915000D01*
X667500Y960500D02*
Y980500D01*
X673250Y986250D02*
X687500D01*
X667500Y980500D02*
X673250Y986250D01*
X662000Y955000D02*
X667500Y960500D01*
X625000Y955000D02*
X662000D01*
X661500Y762500D02*
X665000Y766000D01*
Y785000D02*
X668428Y788428D01*
X665000Y766000D02*
Y785000D01*
X668428Y788428D02*
X684678D01*
X627500Y762500D02*
X661500D01*
X907540Y929260D02*
Y939512D01*
X912540Y929260D02*
X912670Y929390D01*
Y943929D02*
X913364Y944623D01*
X912670Y929390D02*
Y943929D01*
X774147Y843353D02*
X776647D01*
X762500Y855000D02*
X774147Y843353D01*
X762500Y855000D02*
Y902500D01*
X776647Y843353D02*
X777500Y842500D01*
X752350Y912650D02*
X762500Y902500D01*
X685000Y912650D02*
X752350D01*
X983512Y889960D02*
X985000Y888472D01*
Y812838D02*
Y888472D01*
X931840Y889960D02*
X983512D01*
X890000Y1074000D02*
X891000Y1075000D01*
X890000Y1044980D02*
Y1074000D01*
X972500Y618512D02*
X973988Y620000D01*
X1125000Y725000D02*
X1155000Y695000D01*
X1167500D02*
X1170000Y697500D01*
X1155000Y695000D02*
X1167500D01*
X622300Y957700D02*
Y976500D01*
Y957700D02*
X625000Y955000D01*
X987800Y697200D02*
X1003428Y681572D01*
X1010928D02*
X1015000Y677500D01*
X1003428Y681572D02*
X1010928D01*
X980000Y697200D02*
X987800D01*
X992500Y635000D02*
X993707D01*
X1007500Y637500D02*
X1015000Y645000D01*
X993707Y635000D02*
X996207Y637500D01*
X1007500D01*
X1015000Y645000D02*
Y677500D01*
X1023501Y620000D02*
X1024797Y618704D01*
X1028512D02*
X1030000Y617216D01*
Y610000D02*
Y617216D01*
X1002500Y607500D02*
X1027500D01*
X1030000Y610000D01*
X1024797Y618704D02*
X1028512D01*
X999980Y604980D02*
X1002500Y607500D01*
X992500Y604980D02*
X999980D01*
X992500Y597500D02*
Y604980D01*
Y597500D02*
X995000Y595000D01*
X1004000D01*
X1004000Y595000D01*
X1027488Y648988D02*
Y697200D01*
X1027188Y697500D02*
X1044700D01*
X1045000Y697200D01*
X1012500Y697500D02*
X1027188D01*
X1027488Y697200D01*
X917540Y929260D02*
Y938512D01*
X919028Y940000D01*
X922036D01*
X927036Y935000D01*
X845000Y952500D02*
Y982500D01*
Y952500D02*
X862910D01*
X862910Y952500D01*
X845000Y982500D02*
X850000Y987500D01*
X923512Y955000D02*
X925000Y956488D01*
X850000Y987500D02*
X935000D01*
X965000Y957500D01*
X862540Y929260D02*
Y952130D01*
X862910Y952500D01*
X877500Y967500D02*
X896250D01*
X877500Y950410D02*
Y967500D01*
X965000Y915000D02*
Y957500D01*
X917520Y909980D02*
X931820D01*
X917500Y910000D02*
X917520Y909980D01*
X705000Y672500D02*
X771250D01*
X697500Y680000D02*
X705000Y672500D01*
X697500Y680000D02*
Y707500D01*
X960000Y695000D02*
X962200Y697200D01*
X958512Y672500D02*
X960000Y673988D01*
Y695000D01*
X885150Y701162D02*
X886638Y702650D01*
X937983D02*
X962101Y726768D01*
X886638Y702650D02*
X937983D01*
X885150Y687501D02*
Y701162D01*
X939638Y725950D02*
X953450D01*
X939638D02*
X940113Y725475D01*
X867540Y807540D02*
Y845660D01*
X775150Y715150D02*
X867540Y807540D01*
X830620Y892500D02*
X838160Y884960D01*
X848240D01*
X784501Y880000D02*
X785750Y881249D01*
Y902000D02*
X787500Y903750D01*
X837540Y904960D02*
X848240D01*
X785750Y881249D02*
Y902000D01*
X830040Y899960D02*
X848240D01*
X848200Y900000D02*
X848240Y899960D01*
X803000Y928000D02*
Y950000D01*
Y928000D02*
X814500D01*
X837540Y904960D01*
X975000Y822500D02*
Y883342D01*
X973512Y884830D02*
X975000Y883342D01*
X931970Y884830D02*
X973512D01*
X912520Y845680D02*
Y857480D01*
X912500Y857500D02*
X912520Y857480D01*
Y845680D02*
X912540Y845660D01*
X931840Y884960D02*
X931970Y884830D01*
X961012Y879960D02*
X962500Y878472D01*
X931840Y879960D02*
X961012D01*
X962500Y822500D02*
Y878472D01*
X872540Y800040D02*
Y845660D01*
X867520Y917520D02*
Y929240D01*
X867500Y917500D02*
X867520Y917520D01*
Y929240D02*
X867540Y929260D01*
X1000090Y744500D02*
X1000500Y744910D01*
X931820Y909980D02*
X931840Y909960D01*
X814147Y830853D02*
X815000Y830000D01*
X805453Y830853D02*
X814147D01*
X784600Y810000D02*
X805453Y830853D01*
X848240Y879960D02*
X848260Y879980D01*
X862480D01*
X862500Y880000D01*
X845130Y859960D02*
X848240D01*
X845000Y859830D02*
X845130Y859960D01*
X843512Y842500D02*
X845000Y843988D01*
X805000Y842500D02*
X843512D01*
X845000Y843988D02*
Y859830D01*
X912500Y735000D02*
Y760000D01*
X890362Y725950D02*
X903450D01*
X912500Y735000D01*
Y760000D02*
X975000Y822500D01*
X980000Y807838D02*
X985000Y812838D01*
X980000Y807500D02*
Y807838D01*
X1204000Y697500D02*
X1205000Y696500D01*
X979900Y682500D02*
X980000Y682400D01*
X790000Y645000D02*
Y671250D01*
X788750Y672500D02*
X790000Y671250D01*
X788750Y672500D02*
Y716250D01*
X872540Y800040D01*
X685000Y715150D02*
X775150D01*
X845000Y820000D02*
X852500Y812500D01*
X820000Y820000D02*
X845000D01*
X876488Y764050D02*
X890362D01*
X875000Y765538D02*
X876488Y764050D01*
X759200Y810000D02*
X760939Y811739D01*
Y815939D01*
X810000Y810000D02*
X820000Y820000D01*
X684678Y788428D02*
X685000Y788750D01*
X622100Y767900D02*
X627500Y762500D01*
X622100Y767900D02*
Y780000D01*
X962200Y697200D02*
X980000D01*
X1169144Y697500D02*
X1170000D01*
X1164664Y701980D02*
X1169144Y697500D01*
X945338Y685338D02*
Y697970D01*
X945000Y685000D02*
X945338Y685338D01*
X1456250Y1041250D02*
X1465000Y1032500D01*
X1437500Y962500D02*
X1452500D01*
X1465000Y975000D01*
X1452500Y1045000D02*
X1456250Y1041250D01*
X1465000Y975000D02*
Y1032500D01*
X1435000Y1045000D02*
X1452500D01*
X1434480D02*
X1435000D01*
X1430000Y1066012D02*
X1431488Y1067500D01*
X1430000Y1049480D02*
X1434480Y1045000D01*
X1430000Y1049480D02*
Y1066012D01*
X1390000Y1047500D02*
X1392500Y1045000D01*
X1350000Y1048230D02*
Y1066012D01*
Y1048230D02*
X1354480Y1043750D01*
X1350000Y1066012D02*
X1351488Y1067500D01*
X1388390Y1010890D02*
X1392500Y1015000D01*
Y1027500D01*
X1290316Y1010890D02*
X1388390D01*
X1435000Y1015000D02*
Y1027500D01*
X1275000Y1002500D02*
X1422500D01*
X1435000Y1015000D01*
X1288707Y1012500D02*
X1290316Y1010890D01*
X1287500Y1012500D02*
X1288707D01*
X1400000Y1147500D02*
X1402500Y1150000D01*
X992500Y647500D02*
X992500Y647500D01*
X1026000Y582500D02*
Y595000D01*
X1004000Y647500D02*
X1004000Y647500D01*
X992500Y647500D02*
X1004000D01*
X970000Y682500D02*
X979900D01*
X1352500Y963750D02*
X1375000D01*
X1392500Y965000D02*
X1405000D01*
X1412500Y972500D01*
X925000Y1075000D02*
Y1100000D01*
X1205000Y696500D02*
Y697500D01*
Y685000D02*
Y696500D01*
X1207500Y694000D01*
X1435000Y965000D02*
X1437500Y962500D01*
X976246Y693446D02*
X980000Y697200D01*
X892703Y1092477D02*
X893477D01*
X892500Y1092680D02*
X892703Y1092477D01*
X648126Y913075D02*
X684575D01*
X647700Y913500D02*
X648126Y913075D01*
X684575D02*
X685000Y912650D01*
X647500Y717000D02*
X648425Y716075D01*
X684075D01*
X685000Y715150D01*
X1204000Y697500D02*
X1205000D01*
X980000Y682400D02*
Y682500D01*
X1312500Y1025000D02*
X1353750D01*
X1355000Y1026250D01*
X1395000Y1047500D02*
X1412500D01*
X1392500Y1045000D02*
X1395000Y1047500D01*
D91*
X725000Y645000D02*
D03*
X790000D02*
D03*
X725000Y600000D02*
D03*
D92*
X790000D02*
D03*
D93*
X892500Y620000D02*
D03*
D94*
X942500D02*
D03*
X537000Y1122000D02*
D03*
X1467500Y830000D02*
D03*
Y780000D02*
D03*
X532500Y727500D02*
D03*
X535000Y935001D02*
D03*
D95*
X1500000Y1237500D02*
D03*
X502500Y587500D02*
D03*
X1500000D02*
D03*
X502500Y1237500D02*
D03*
D96*
X835400Y810000D02*
D03*
D97*
X810000D02*
D03*
X784600D02*
D03*
X759200D02*
D03*
D98*
X537000Y1172000D02*
D03*
X1467500Y730000D02*
D03*
X532500Y777500D02*
D03*
X535000Y985001D02*
D03*
D99*
X1257500Y837000D02*
D03*
X1377500D02*
D03*
Y715000D02*
D03*
D100*
X1317500Y695000D02*
D03*
D101*
X1257500Y715000D02*
D03*
D102*
X1182000Y1111000D02*
D03*
X811000Y882000D02*
D03*
X902000Y797000D02*
D03*
X930000Y805000D02*
D03*
X902000Y945000D02*
D03*
X883000Y820000D02*
D03*
X747500Y855000D02*
D03*
X690000Y760000D02*
D03*
X913364Y944623D02*
D03*
X523000Y1134000D02*
D03*
X543000Y1136000D02*
D03*
X523000Y1124000D02*
D03*
Y1115000D02*
D03*
X524000Y1106000D02*
D03*
X535000Y1105000D02*
D03*
X546000Y1106000D02*
D03*
X680000Y760000D02*
D03*
X1105000Y1055000D02*
D03*
X1112500D02*
D03*
X1120000D02*
D03*
Y1047500D02*
D03*
Y1040000D02*
D03*
X1205000Y685000D02*
D03*
X925000Y1100000D02*
D03*
X1265000Y1172500D02*
D03*
X1412500Y972500D02*
D03*
X1375000Y963750D02*
D03*
X1450000Y982500D02*
D03*
X1392500Y995000D02*
D03*
X1115000Y927500D02*
D03*
X1050000Y930000D02*
D03*
X970000Y682500D02*
D03*
X992500Y647500D02*
D03*
X1026000Y582500D02*
D03*
X992500Y604980D02*
D03*
X1337500Y980000D02*
D03*
X852500Y812500D02*
D03*
X697500Y730000D02*
D03*
Y707500D02*
D03*
X980000Y807500D02*
D03*
X927036Y935000D02*
D03*
X777500Y842500D02*
D03*
X805000D02*
D03*
X815000Y830000D02*
D03*
X912500Y857500D02*
D03*
X862500Y880000D02*
D03*
X867500Y917500D02*
D03*
X737500Y855000D02*
D03*
Y927350D02*
D03*
X917500Y910000D02*
D03*
X787500Y965000D02*
D03*
X877500Y967500D02*
D03*
X1047500Y915000D02*
D03*
X692500Y957500D02*
D03*
X685000D02*
D03*
X622500Y902500D02*
D03*
X890000Y1044980D02*
D03*
X1040020Y914898D02*
D03*
X965000Y905000D02*
D03*
X1412500Y1047500D02*
D03*
X1375000Y1043750D02*
D03*
X1287500Y1012500D02*
D03*
X1312500Y1025000D02*
D03*
X1275000Y1002500D02*
D03*
X1125000Y725000D02*
D03*
X845000Y1212500D02*
D03*
X865000D02*
D03*
X887500D02*
D03*
X907500D02*
D03*
Y1190000D02*
D03*
X887500D02*
D03*
X865000D02*
D03*
X845000D02*
D03*
X930000Y1212500D02*
D03*
Y1190000D02*
D03*
X887500Y1165000D02*
D03*
X907500D02*
D03*
X930000D02*
D03*
X845000D02*
D03*
X865000D02*
D03*
X992500Y635000D02*
D03*
X622500Y707500D02*
D03*
X532500Y1135500D02*
D03*
X553000Y1134000D02*
D03*
Y1124000D02*
D03*
Y1114000D02*
D03*
D103*
X688000Y1071000D02*
D03*
X1001000Y731000D02*
D03*
X815000Y858000D02*
D03*
X822525Y885368D02*
D03*
X827500Y885000D02*
D03*
X937500Y827500D02*
D03*
X1370000Y1174000D02*
D03*
X1338500Y1099500D02*
D03*
X1378000Y1100000D02*
D03*
X1423400Y1099400D02*
D03*
X1186000Y775000D02*
D03*
X1370000Y1150000D02*
D03*
X1399500Y1177500D02*
D03*
X1360000Y1182000D02*
D03*
X947960Y899960D02*
D03*
X944590Y827910D02*
D03*
X931000Y823080D02*
D03*
X965000Y915000D02*
D03*
X953450Y725950D02*
D03*
X762500Y1197500D02*
D03*
X772500D02*
D03*
X782500D02*
D03*
X752500D02*
D03*
Y1190000D02*
D03*
Y1182500D02*
D03*
X782500D02*
D03*
Y1190000D02*
D03*
X772500D02*
D03*
X762500D02*
D03*
X845000Y952500D02*
D03*
X972500Y915000D02*
D03*
X840000Y947500D02*
D03*
D104*
X1115000Y976000D02*
D03*
D105*
X872500Y1020000D02*
D03*
X975000D02*
D03*
X1230000Y812500D02*
D03*
Y830000D02*
D03*
X1257500Y772500D02*
D03*
X890000Y1020000D02*
D03*
X960000D02*
D03*
M02*
