G04*
G04 #@! TF.GenerationSoftware,Altium Limited,Altium Designer,25.2.1 (25)*
G04*
G04 Layer_Color=1265191*
%FSLAX44Y44*%
%MOMM*%
G71*
G04*
G04 #@! TF.SameCoordinates,6A0C6451-6BFE-4A27-B80D-F8B4996A6162*
G04*
G04*
G04 #@! TF.FilePolarity,Positive*
G04*
G01*
G75*
%ADD10C,0.2000*%
%ADD90C,0.2540*%
%ADD106C,0.0500*%
D10*
X915000Y736110D02*
Y752620D01*
D90*
X907380Y745000D02*
X922620D01*
D106*
X859500Y576500D02*
Y663500D01*
Y576500D02*
X969500D01*
Y663500D01*
X859500D02*
X969500D01*
X1377500Y1178500D02*
Y1199500D01*
Y1178500D02*
X1405500D01*
Y1199500D01*
X1377500D02*
X1405500D01*
X493500Y1205000D02*
X580500D01*
X493500Y1095000D02*
Y1205000D01*
Y1095000D02*
X580500D01*
Y1205000D01*
X629800Y748500D02*
X639800D01*
X634800Y743500D02*
Y753500D01*
X655800Y709500D02*
Y787500D01*
X613800Y709500D02*
X655800D01*
X613800D02*
Y787500D01*
X655800D01*
X1424000Y697000D02*
X1511000D01*
Y857000D01*
X1424000D02*
X1511000D01*
X1424000Y697000D02*
Y857000D01*
X576001Y700500D02*
Y810500D01*
X489001Y700500D02*
X576001D01*
X489001D02*
Y810500D01*
X576001D01*
X578501Y908000D02*
Y1018001D01*
X491501Y908000D02*
X578501D01*
X491501D02*
Y1018001D01*
X578501D01*
X614000Y984000D02*
X656000D01*
X614000Y906000D02*
Y984000D01*
Y906000D02*
X656000D01*
Y984000D01*
X635000Y940000D02*
Y950000D01*
X630000Y945000D02*
X640000D01*
M02*
